<?xml version="1.0" encoding="UTF-8" standalone="no"?>
<svg
   xmlns:dc="http://purl.org/dc/elements/1.1/"
   xmlns:cc="http://creativecommons.org/ns#"
   xmlns:rdf="http://www.w3.org/1999/02/22-rdf-syntax-ns#"
   xmlns:svg="http://www.w3.org/2000/svg"
   xmlns="http://www.w3.org/2000/svg"
   xmlns:sodipodi="http://sodipodi.sourceforge.net/DTD/sodipodi-0.dtd"
   xmlns:inkscape="http://www.inkscape.org/namespaces/inkscape"
   width="512"
   height="512"
   viewBox="0 0 135.46666 135.46667"
   version="1.1"
   id="svg8"
   inkscape:version="1.0.2 (e86c870879, 2021-01-15, custom)"
   sodipodi:docname="pride_herat_ace.svg"
   inkscape:export-filename="/home/andromeda/genderqueer_big.png"
   inkscape:export-xdpi="96"
   inkscape:export-ydpi="96">
  <defs
     id="defs2">
    <style
       id="style1361">.cls-1{fill:#ee3124;}.cls-2{fill:#f57f29;}.cls-3{fill:#fff000;}.cls-4{fill:#58b947;}.cls-5{fill:#0054a6;}.cls-6{fill:#9f248f;}.cls-7{fill:#603917;}.cls-8{fill:#7cc0ea;}.cls-9{fill:#f498c0;}.cls-10{fill:#fff;}</style>
  </defs>
  <sodipodi:namedview
     id="base"
     pagecolor="#ffffff"
     bordercolor="#666666"
     borderopacity="1.0"
     inkscape:pageopacity="0.0"
     inkscape:pageshadow="2"
     inkscape:zoom="0.125"
     inkscape:cx="1211.1276"
     inkscape:cy="-210.71982"
     inkscape:document-units="mm"
     inkscape:current-layer="layer1"
     inkscape:document-rotation="0"
     showgrid="false"
     units="px"
     inkscape:snap-bbox="true"
     inkscape:bbox-nodes="true"
     inkscape:bbox-paths="true"
     inkscape:snap-bbox-midpoints="true"
     inkscape:snap-bbox-edge-midpoints="true"
     inkscape:window-width="1920"
     inkscape:window-height="1024"
     inkscape:window-x="0"
     inkscape:window-y="28"
     inkscape:window-maximized="1"
     inkscape:snap-midpoints="true"
     inkscape:object-paths="true"
     inkscape:snap-intersection-paths="true"
     inkscape:snap-smooth-nodes="true"
     inkscape:snap-object-midpoints="true"
     inkscape:snap-nodes="false" />
  <metadata
     id="metadata5">
    <rdf:RDF>
      <cc:Work
         rdf:about="">
        <dc:format>image/svg+xml</dc:format>
        <dc:type
           rdf:resource="http://purl.org/dc/dcmitype/StillImage" />
        <dc:title></dc:title>
      </cc:Work>
    </rdf:RDF>
  </metadata>
  <g
     inkscape:groupmode="layer"
     id="layer3"
     inkscape:label="Layer 3"
     style="display:none">
    <circle
       style="fill:#ffccaa;fill-opacity:1;stroke:none;stroke-width:1.28965"
       id="path1528"
       cx="24.464302"
       cy="100.97677"
       r="78.425537" />
  </g>
  <g
     inkscape:groupmode="layer"
     id="layer4"
     inkscape:label="Layer 4" />
  <g
     inkscape:label="Layer 1"
     inkscape:groupmode="layer"
     id="layer1"
     style="display:inline">
    <g
       id="g7118"
       transform="matrix(1.6178737,0,0,1.6178737,-239.8031,-275.73671)">
      <path
         id="rect833-3-1-2"
         style="display:inline;fill:#333333;fill-opacity:1;stroke:none;stroke-width:0.202536"
         d="m 155.89037,181.65392 a 24.159491,24.159491 0 0 0 1e-5,34.16671 24.159491,24.159491 0 0 0 0.0719,0.0715 l -1.8e-4,1.8e-4 34.16672,34.16671 34.16671,-34.1667 -0.0574,-0.0574 a 24.159491,24.159491 0 0 0 0.0717,-0.0713 24.159491,24.159491 0 0 0 1e-5,-34.16671 24.159491,24.159491 0 0 0 -34.16673,0 24.159491,24.159491 0 0 0 -0.0711,0.0719 24.159491,24.159491 0 0 0 -0.0148,-0.0148 24.159491,24.159491 0 0 0 -34.16669,2e-5 z"
         inkscape:export-filename="/home/andromeda/rect833-5.png"
         inkscape:export-xdpi="96"
         inkscape:export-ydpi="96" />
      <path
         id="rect833-3-66-8-9-0-0"
         style="display:inline;fill:#333333;fill-opacity:1;stroke:none;stroke-width:0.202536"
         d="m 149.11124,195.07049 a 24.159491,24.159491 0 0 0 6.79365,20.76538 24.159491,24.159491 0 0 0 0.072,0.0713 l -3.7e-4,3.7e-4 34.1667,34.1667 34.16671,-34.1667 -0.0574,-0.0574 a 24.159491,24.159491 0 0 0 0.072,-0.0713 24.159491,24.159491 0 0 0 6.79658,-20.74857 68.622344,68.622344 0 0 0 -40.80214,-13.57782 24.159491,24.159491 0 0 0 -0.16117,0.15967 24.159491,24.159491 0 0 0 -0.0709,0.0716 24.159491,24.159491 0 0 0 -0.015,-0.015 24.159491,24.159491 0 0 0 -0.21965,-0.21591 68.622344,68.622344 0 0 0 -40.74112,13.61764 z"
         inkscape:export-filename="/home/andromeda/rect833-3.png"
         inkscape:export-xdpi="96"
         inkscape:export-ydpi="96" />
      <path
         id="rect833-3-92-7-9-3-2"
         style="display:inline;fill:#e6e6e6;fill-opacity:1;stroke:none;stroke-width:0.202536"
         d="m 150.23304,206.8673 a 24.159491,24.159491 0 0 0 5.67185,8.96857 24.159491,24.159491 0 0 0 0.072,0.0713 l -3.7e-4,3.7e-4 34.1667,34.1667 34.16671,-34.1667 -0.0574,-0.0574 a 24.159491,24.159491 0 0 0 0.072,-0.0713 24.159491,24.159491 0 0 0 5.67113,-8.96491 58.819153,58.819153 0 0 0 -79.76264,0.0533 z"
         inkscape:export-filename="/home/andromeda/rect833-3.png"
         inkscape:export-xdpi="96"
         inkscape:export-ydpi="96" />
      <path
         id="rect833-3-8-1-0-4-3"
         style="display:inline;fill:#e6e6e6;fill-opacity:1;stroke:none;stroke-width:0.202536"
         d="m 155.48942,215.40944 a 24.159491,24.159491 0 0 0 0.41547,0.42643 24.159491,24.159491 0 0 0 0.072,0.0713 l -3.7e-4,3.7e-4 34.1667,34.1667 34.1667,-34.1667 -0.0574,-0.0574 a 24.159491,24.159491 0 0 0 0.072,-0.0713 24.159491,24.159491 0 0 0 0.41584,-0.42679 49.01596,49.01596 0 0 0 -69.25096,0.0574 z"
         inkscape:export-filename="/home/andromeda/rect833-3.png"
         inkscape:export-xdpi="96"
         inkscape:export-ydpi="96" />
      <path
         id="rect833-3-6-7-8-0-7"
         style="display:inline;fill:#ffffff;fill-opacity:1;stroke:none;stroke-width:0.202536"
         d="m 162.41572,222.34634 27.72749,27.72749 27.7275,-27.72749 a 39.212766,39.212766 0 0 0 -55.45499,0 z"
         inkscape:export-filename="/home/andromeda/rect833-3.png"
         inkscape:export-xdpi="96"
         inkscape:export-ydpi="96" />
      <path
         id="rect833-3-0-2-1-3-5"
         style="display:inline;fill:#ffffff;fill-opacity:1;stroke:none;stroke-width:0.202536"
         d="m 169.34751,229.27849 20.79571,20.7957 20.79571,-20.79571 a 29.409575,29.409575 0 0 0 -41.59142,1e-5 z"
         inkscape:export-filename="/home/andromeda/rect833-3.png"
         inkscape:export-xdpi="96"
         inkscape:export-ydpi="96" />
      <path
         id="rect833-3-2-7-3-9-9"
         style="display:inline;fill:#cd87de;fill-opacity:1;stroke:none;stroke-width:0.202536"
         d="m 176.27929,236.21026 13.86393,13.86393 13.86392,-13.86393 a 19.606384,19.606384 0 0 0 -27.72785,0 z"
         inkscape:export-filename="/home/andromeda/rect833-3.png"
         inkscape:export-xdpi="96"
         inkscape:export-ydpi="96" />
      <path
         id="rect833-3-9-2-1-1-2"
         style="display:inline;fill:#cd87de;fill-opacity:1;stroke:none;stroke-width:0.202536"
         d="m 183.21143,243.14241 6.93179,6.93178 6.93214,-6.93215 a 9.8031922,9.8031922 0 0 0 -13.86393,3.7e-4 z"
         inkscape:export-filename="/home/andromeda/rect833-3.png"
         inkscape:export-xdpi="96"
         inkscape:export-ydpi="96" />
    </g>
  </g>
  <g
     inkscape:groupmode="layer"
     id="layer2"
     inkscape:label="Layer 2" />
</svg>
