<?xml version="1.0" encoding="UTF-8" standalone="no"?>
<svg
   xmlns:dc="http://purl.org/dc/elements/1.1/"
   xmlns:cc="http://creativecommons.org/ns#"
   xmlns:rdf="http://www.w3.org/1999/02/22-rdf-syntax-ns#"
   xmlns:svg="http://www.w3.org/2000/svg"
   xmlns="http://www.w3.org/2000/svg"
   xmlns:sodipodi="http://sodipodi.sourceforge.net/DTD/sodipodi-0.dtd"
   xmlns:inkscape="http://www.inkscape.org/namespaces/inkscape"
   width="512"
   height="512"
   viewBox="0 0 135.46666 135.46667"
   version="1.1"
   id="svg8"
   inkscape:version="1.0.2 (e86c870879, 2021-01-15, custom)"
   sodipodi:docname="pride_herat_deminonbinairy.svg"
   inkscape:export-filename="/home/andromeda/genderqueer_big.png"
   inkscape:export-xdpi="96"
   inkscape:export-ydpi="96">
  <defs
     id="defs2">
    <style
       id="style1361">.cls-1{fill:#ee3124;}.cls-2{fill:#f57f29;}.cls-3{fill:#fff000;}.cls-4{fill:#58b947;}.cls-5{fill:#0054a6;}.cls-6{fill:#9f248f;}.cls-7{fill:#603917;}.cls-8{fill:#7cc0ea;}.cls-9{fill:#f498c0;}.cls-10{fill:#fff;}</style>
  </defs>
  <sodipodi:namedview
     id="base"
     pagecolor="#ffffff"
     bordercolor="#666666"
     borderopacity="1.0"
     inkscape:pageopacity="0.0"
     inkscape:pageshadow="2"
     inkscape:zoom="0.25"
     inkscape:cx="-227.84742"
     inkscape:cy="-378.10502"
     inkscape:document-units="mm"
     inkscape:current-layer="layer1"
     inkscape:document-rotation="0"
     showgrid="false"
     units="px"
     inkscape:snap-bbox="true"
     inkscape:bbox-nodes="true"
     inkscape:bbox-paths="true"
     inkscape:snap-bbox-midpoints="true"
     inkscape:snap-bbox-edge-midpoints="true"
     inkscape:window-width="1920"
     inkscape:window-height="1024"
     inkscape:window-x="0"
     inkscape:window-y="28"
     inkscape:window-maximized="1"
     inkscape:snap-midpoints="true"
     inkscape:object-paths="true"
     inkscape:snap-intersection-paths="true"
     inkscape:snap-smooth-nodes="true"
     inkscape:snap-object-midpoints="true"
     inkscape:snap-nodes="false" />
  <metadata
     id="metadata5">
    <rdf:RDF>
      <cc:Work
         rdf:about="">
        <dc:format>image/svg+xml</dc:format>
        <dc:type
           rdf:resource="http://purl.org/dc/dcmitype/StillImage" />
        <dc:title></dc:title>
      </cc:Work>
    </rdf:RDF>
  </metadata>
  <g
     inkscape:groupmode="layer"
     id="layer3"
     inkscape:label="Layer 3"
     style="display:none">
    <circle
       style="fill:#ffccaa;fill-opacity:1;stroke:none;stroke-width:1.28965"
       id="path1528"
       cx="24.464302"
       cy="100.97677"
       r="78.425537" />
  </g>
  <g
     inkscape:groupmode="layer"
     id="layer4"
     inkscape:label="Layer 4" />
  <g
     inkscape:label="Layer 1"
     inkscape:groupmode="layer"
     id="layer1"
     style="display:inline">
    <path
       id="rect833-3-0-61"
       style="display:inline;fill:#808080;fill-opacity:1;stroke:none;stroke-width:0.327736"
       d="m 12.467819,18.167677 a 39.093922,39.093922 0 0 0 0,55.28722 39.093922,39.093922 0 0 0 0.116345,0.115698 l -2.91e-4,2.92e-4 55.28722,55.287233 55.287207,-55.287217 -0.0929,-0.09288 a 39.093922,39.093922 0 0 0 0.11603,-0.115374 39.093922,39.093922 0 0 0 10e-6,-55.287204 39.093922,39.093922 0 0 0 -55.287218,0 39.093922,39.093922 0 0 0 -0.115051,0.116346 39.093922,39.093922 0 0 0 -0.02395,-0.02395 39.093922,39.093922 0 0 0 -55.287171,3.2e-5 z"
       inkscape:export-filename="/home/andromeda/rect833-5.png"
       inkscape:export-xdpi="96"
       inkscape:export-ydpi="96" />
    <path
       id="path1688-0-7-4-7-4-5"
       style="display:inline;fill:#e6e6e6;fill-opacity:1;stroke:none;stroke-width:1.43611"
       d="M 67.87072,20.082074 A 108.77571,108.77571 0 0 0 1.1204715,42.971578 39.093922,39.093922 0 0 0 12.467802,73.45467 a 39.093922,39.093922 0 0 0 0.116184,0.116184 l 55.286686,55.287516 55.287508,-55.287532 -0.0929,-0.09288 A 39.093922,39.093922 0 0 0 123.18146,73.362583 39.093922,39.093922 0 0 0 134.5288,42.899556 108.77571,108.77571 0 0 0 67.870539,20.081963 Z" />
    <path
       id="path1688-1-3-4-4-4-8-5"
       style="display:inline;fill:#ffdd55;fill-opacity:1;stroke:none;stroke-width:1.19676"
       d="M 67.824716,38.211858 A 90.646435,90.646435 0 0 0 5.1718911,63.349115 39.093922,39.093922 0 0 0 12.467802,73.45467 a 39.093922,39.093922 0 0 0 0.116184,0.116184 l 55.286686,55.287516 55.287508,-55.287532 -0.0929,-0.09288 a 39.093922,39.093922 0 0 0 0.11618,-0.115375 39.093922,39.093922 0 0 0 7.26415,-10.04366 90.646435,90.646435 0 0 0 -62.621076,-25.107128 z" />
    <path
       id="path1688-1-3-2-4-4-1-8-47"
       style="display:inline;fill:#ffffff;fill-opacity:1;stroke:none;stroke-width:0.957407"
       d="M 67.772045,56.340865 A 72.517138,72.517138 0 0 0 16.571068,77.557936 L 67.87072,128.85841 119.12521,77.603924 a 72.517138,72.517138 0 0 0 -51.300494,-21.263076 72.517138,72.517138 0 0 0 -0.05259,0 z" />
    <path
       id="path1688-1-3-0-3-4-8-8-6"
       style="display:inline;fill:#ffdd55;fill-opacity:1;stroke:none;stroke-width:0.718052"
       d="M 67.87072,74.469839 A 54.387859,54.387859 0 0 0 29.412705,90.400414 L 67.87072,128.85843 106.32874,90.400414 A 54.387859,54.387859 0 0 0 67.87072,74.469839 Z" />
    <path
       id="path1688-1-3-2-6-0-7-5-9-5"
       style="display:inline;fill:#e6e6e6;fill-opacity:1;stroke:none;stroke-width:0.478705"
       d="M 67.824716,92.599639 A 36.258572,36.258572 0 0 0 42.209179,103.19606 L 67.87072,128.85843 93.486258,103.24289 A 36.258572,36.258572 0 0 0 67.824716,92.599639 Z" />
    <path
       id="path1688-1-3-0-1-7-6-9-7-6"
       style="display:inline;fill:#808080;fill-opacity:1;stroke:none;stroke-width:0.23935"
       d="m 67.824716,110.72861 a 18.129287,18.129287 0 0 0 -12.796474,5.28733 l 12.842478,12.84247 12.796474,-12.79649 a 18.129287,18.129287 0 0 0 -12.842478,-5.33331 z" />
  </g>
  <g
     inkscape:groupmode="layer"
     id="layer2"
     inkscape:label="Layer 2" />
</svg>
