<?xml version="1.0" encoding="UTF-8" standalone="no"?>
<svg
   xmlns:dc="http://purl.org/dc/elements/1.1/"
   xmlns:cc="http://creativecommons.org/ns#"
   xmlns:rdf="http://www.w3.org/1999/02/22-rdf-syntax-ns#"
   xmlns:svg="http://www.w3.org/2000/svg"
   xmlns="http://www.w3.org/2000/svg"
   xmlns:sodipodi="http://sodipodi.sourceforge.net/DTD/sodipodi-0.dtd"
   xmlns:inkscape="http://www.inkscape.org/namespaces/inkscape"
   width="512"
   height="512"
   viewBox="0 0 135.46666 135.46667"
   version="1.1"
   id="svg8"
   inkscape:version="1.0.2 (e86c870879, 2021-01-15, custom)"
   sodipodi:docname="pride_heart_genderfluid.svg">
  <defs
     id="defs2">
    <style
       id="style1361">.cls-1{fill:#ee3124;}.cls-2{fill:#f57f29;}.cls-3{fill:#fff000;}.cls-4{fill:#58b947;}.cls-5{fill:#0054a6;}.cls-6{fill:#9f248f;}.cls-7{fill:#603917;}.cls-8{fill:#7cc0ea;}.cls-9{fill:#f498c0;}.cls-10{fill:#fff;}</style>
  </defs>
  <sodipodi:namedview
     id="base"
     pagecolor="#ffffff"
     bordercolor="#666666"
     borderopacity="1.0"
     inkscape:pageopacity="0.0"
     inkscape:pageshadow="2"
     inkscape:zoom="0.70710678"
     inkscape:cx="203.8547"
     inkscape:cy="309.3145"
     inkscape:document-units="mm"
     inkscape:current-layer="layer1"
     inkscape:document-rotation="0"
     showgrid="false"
     units="px"
     inkscape:snap-bbox="true"
     inkscape:bbox-nodes="true"
     inkscape:bbox-paths="true"
     inkscape:snap-bbox-midpoints="true"
     inkscape:snap-bbox-edge-midpoints="true"
     inkscape:window-width="1920"
     inkscape:window-height="1024"
     inkscape:window-x="0"
     inkscape:window-y="28"
     inkscape:window-maximized="1"
     inkscape:snap-midpoints="true"
     inkscape:object-paths="true"
     inkscape:snap-intersection-paths="true"
     inkscape:snap-smooth-nodes="true"
     inkscape:snap-object-midpoints="true"
     inkscape:snap-nodes="false" />
  <metadata
     id="metadata5">
    <rdf:RDF>
      <cc:Work
         rdf:about="">
        <dc:format>image/svg+xml</dc:format>
        <dc:type
           rdf:resource="http://purl.org/dc/dcmitype/StillImage" />
        <dc:title />
      </cc:Work>
    </rdf:RDF>
  </metadata>
  <g
     inkscape:groupmode="layer"
     id="layer3"
     inkscape:label="Layer 3"
     style="display:none">
    <circle
       style="fill:#ffccaa;fill-opacity:1;stroke:none;stroke-width:1.28965"
       id="path1528"
       cx="24.464302"
       cy="100.97677"
       r="78.425537" />
  </g>
  <g
     inkscape:groupmode="layer"
     id="layer4"
     inkscape:label="Layer 4" />
  <g
     inkscape:label="Layer 1"
     inkscape:groupmode="layer"
     id="layer1"
     style="display:inline">
    <g
       id="g981"
       transform="matrix(1.6181634,0,0,1.6181634,-22.884193,-54.714742)">
      <path
         id="rect833-3"
         style="fill:#ff5599;fill-opacity:1;stroke:none;stroke-width:0.202536"
         d="m 21.790522,44.970623 a 24.159491,24.159491 0 0 0 1e-6,34.16671 24.159491,24.159491 0 0 0 0.07186,0.0715 l -1.8e-4,1.8e-4 34.166723,34.166717 34.166711,-34.166707 -0.0574,-0.0574 a 24.159491,24.159491 0 0 0 0.0717,-0.0713 24.159491,24.159491 0 0 0 1e-5,-34.16671 24.159491,24.159491 0 0 0 -34.166723,0 24.159491,24.159491 0 0 0 -0.0711,0.0719 24.159491,24.159491 0 0 0 -0.0148,-0.0148 24.159491,24.159491 0 0 0 -34.166693,2e-5 z"
         inkscape:export-filename="/home/andromeda/rect833-5.png"
         inkscape:export-xdpi="96"
         inkscape:export-ydpi="96" />
      <path
         id="path1688-0-7-1-5-1-6"
         style="display:inline;fill:#ffffff;fill-opacity:1;stroke:none;stroke-width:0.828328"
         d="m 55.986335,50.764254 a 62.740418,62.740418 0 0 0 -40.98251,15.23472 24.159491,24.159491 0 0 0 6.77271,13.26741 24.159491,24.159491 0 0 0 0.0713,0.0713 l 34.16691,34.166906 34.16691,-34.166906 -0.0574,-0.0574 a 24.159491,24.159491 0 0 0 0.0713,-0.0713 24.159491,24.159491 0 0 0 6.76496,-13.21676 62.740418,62.740418 0 0 0 -40.97424,-15.22801 z" />
      <path
         id="path1688-1-3-4-0-9-2-9"
         style="display:inline;fill:#cd87de;fill-opacity:1;stroke:none;stroke-width:0.621247"
         d="m 55.980655,66.449084 a 47.055312,47.055312 0 0 0 -33.2388,13.78262 l 33.2729,33.272896 33.27291,-33.272896 a 47.055312,47.055312 0 0 0 -33.27291,-13.78262 47.055312,47.055312 0 0 0 -0.0341,0 z" />
      <path
         id="path1688-1-3-2-6-0-5-7-9-3"
         style="display:inline;fill:#333333;fill-opacity:1;stroke:none;stroke-width:0.414166"
         d="m 55.888665,82.134424 a 31.370209,31.370209 0 0 0 -22.06997,9.1736 l 22.19606,22.196576 22.16764,-22.167636 a 31.370209,31.370209 0 0 0 -22.19606,-9.20254 31.370209,31.370209 0 0 0 -0.0977,0 z" />
      <path
         id="path1688-1-3-0-1-7-9-7-3-3"
         style="display:inline;fill:#3771c8;fill-opacity:1;stroke:none;stroke-width:0.207082"
         d="m 56.014755,97.819774 a 15.685103,15.685104 0 0 0 -11.09079,4.593516 l 11.09079,11.09131 11.0908,-11.0908 a 15.685103,15.685104 0 0 0 -11.0908,-4.594026 z" />
    </g>
  </g>
  <g
     inkscape:groupmode="layer"
     id="layer2"
     inkscape:label="Layer 2" />
</svg>
