<?xml version="1.0" encoding="UTF-8" standalone="no"?>
<svg
   xmlns:dc="http://purl.org/dc/elements/1.1/"
   xmlns:cc="http://creativecommons.org/ns#"
   xmlns:rdf="http://www.w3.org/1999/02/22-rdf-syntax-ns#"
   xmlns:svg="http://www.w3.org/2000/svg"
   xmlns="http://www.w3.org/2000/svg"
   xmlns:sodipodi="http://sodipodi.sourceforge.net/DTD/sodipodi-0.dtd"
   xmlns:inkscape="http://www.inkscape.org/namespaces/inkscape"
   width="512"
   height="512"
   viewBox="0 0 135.46666 135.46667"
   version="1.1"
   id="svg8"
   inkscape:version="1.0.2 (e86c870879, 2021-01-15, custom)"
   sodipodi:docname="pride_heart_inter.svg"
   inkscape:export-filename="/home/andromeda/genderqueer_big.png"
   inkscape:export-xdpi="96"
   inkscape:export-ydpi="96">
  <defs
     id="defs2">
    <style
       id="style1361">.cls-1{fill:#ee3124;}.cls-2{fill:#f57f29;}.cls-3{fill:#fff000;}.cls-4{fill:#58b947;}.cls-5{fill:#0054a6;}.cls-6{fill:#9f248f;}.cls-7{fill:#603917;}.cls-8{fill:#7cc0ea;}.cls-9{fill:#f498c0;}.cls-10{fill:#fff;}</style>
    <style
       id="style1361-7">.cls-1{fill:#ee3124;}.cls-2{fill:#f57f29;}.cls-3{fill:#fff000;}.cls-4{fill:#58b947;}.cls-5{fill:#0054a6;}.cls-6{fill:#9f248f;}.cls-7{fill:#603917;}.cls-8{fill:#7cc0ea;}.cls-9{fill:#f498c0;}.cls-10{fill:#fff;}</style>
    <style
       id="style1361-75">.cls-1{fill:#ee3124;}.cls-2{fill:#f57f29;}.cls-3{fill:#fff000;}.cls-4{fill:#58b947;}.cls-5{fill:#0054a6;}.cls-6{fill:#9f248f;}.cls-7{fill:#603917;}.cls-8{fill:#7cc0ea;}.cls-9{fill:#f498c0;}.cls-10{fill:#fff;}</style>
  </defs>
  <sodipodi:namedview
     id="base"
     pagecolor="#ffffff"
     bordercolor="#666666"
     borderopacity="1.0"
     inkscape:pageopacity="0.0"
     inkscape:pageshadow="2"
     inkscape:zoom="0.5"
     inkscape:cx="-149.69443"
     inkscape:cy="135.289"
     inkscape:document-units="mm"
     inkscape:current-layer="layer1"
     inkscape:document-rotation="0"
     showgrid="false"
     units="px"
     inkscape:snap-bbox="true"
     inkscape:bbox-nodes="true"
     inkscape:bbox-paths="true"
     inkscape:snap-bbox-midpoints="true"
     inkscape:snap-bbox-edge-midpoints="true"
     inkscape:window-width="1920"
     inkscape:window-height="1024"
     inkscape:window-x="0"
     inkscape:window-y="28"
     inkscape:window-maximized="1"
     inkscape:snap-midpoints="true"
     inkscape:object-paths="true"
     inkscape:snap-intersection-paths="true"
     inkscape:snap-smooth-nodes="true"
     inkscape:snap-object-midpoints="true"
     inkscape:snap-nodes="false" />
  <metadata
     id="metadata5">
    <rdf:RDF>
      <cc:Work
         rdf:about="">
        <dc:format>image/svg+xml</dc:format>
        <dc:type
           rdf:resource="http://purl.org/dc/dcmitype/StillImage" />
        <dc:title />
      </cc:Work>
    </rdf:RDF>
  </metadata>
  <g
     inkscape:groupmode="layer"
     id="layer3"
     inkscape:label="Layer 3"
     style="display:none">
    <circle
       style="fill:#ffccaa;fill-opacity:1;stroke:none;stroke-width:1.28965"
       id="path1528"
       cx="24.464302"
       cy="100.97677"
       r="78.425537" />
  </g>
  <g
     inkscape:groupmode="layer"
     id="layer4"
     inkscape:label="Layer 4" />
  <g
     inkscape:label="Layer 1"
     inkscape:groupmode="layer"
     id="layer1"
     style="display:inline">
    <path
       id="rect833-3-1-2"
       style="display:inline;fill:#ffdd55;fill-opacity:1;stroke:none;stroke-width:0.327678"
       d="m 12.40783,18.15639 a 39.087005,39.087005 0 0 0 1.6e-5,55.277421 39.087005,39.087005 0 0 0 0.116325,0.115678 l -2.91e-4,2.91e-4 55.277437,55.27742 55.277423,-55.277403 -0.0929,-0.09287 a 39.087005,39.087005 0 0 0 0.116,-0.115355 39.087005,39.087005 0 0 0 2e-5,-55.277421 39.087005,39.087005 0 0 0 -55.277453,0 39.087005,39.087005 0 0 0 -0.115031,0.116325 39.087005,39.087005 0 0 0 -0.02394,-0.02394 39.087005,39.087005 0 0 0 -55.27739,3.3e-5 z"
       inkscape:export-filename="/home/andromeda/rect833-5.png"
       inkscape:export-xdpi="96"
       inkscape:export-ydpi="96" />
    <path
       id="path904"
       style="fill:#cd87de;fill-opacity:1;stroke-width:0.999999"
       d="M 256.05664 142.43555 A 113.52007 113.52007 0 0 0 142.56055 255.95508 A 113.52007 113.52007 0 0 0 256.08203 369.47461 A 113.52007 113.52007 0 0 0 369.60156 255.95508 A 113.52007 113.52007 0 0 0 256.08203 142.43555 A 113.52007 113.52007 0 0 0 256.05664 142.43555 z M 256.08203 177.55859 A 78.396059 78.396059 0 0 1 334.47656 255.95508 A 78.396059 78.396059 0 0 1 256.08203 334.35156 A 78.396059 78.396059 0 0 1 177.68555 255.95508 A 78.396059 78.396059 0 0 1 256.08203 177.55859 z "
       transform="scale(0.26458333)" />
  </g>
  <g
     inkscape:groupmode="layer"
     id="layer2"
     inkscape:label="Layer 2" />
</svg>
