<?xml version="1.0" encoding="UTF-8" standalone="no"?>
<svg
   xmlns:dc="http://purl.org/dc/elements/1.1/"
   xmlns:cc="http://creativecommons.org/ns#"
   xmlns:rdf="http://www.w3.org/1999/02/22-rdf-syntax-ns#"
   xmlns:svg="http://www.w3.org/2000/svg"
   xmlns="http://www.w3.org/2000/svg"
   xmlns:sodipodi="http://sodipodi.sourceforge.net/DTD/sodipodi-0.dtd"
   xmlns:inkscape="http://www.inkscape.org/namespaces/inkscape"
   width="512"
   height="512"
   viewBox="0 0 135.46666 135.46667"
   version="1.1"
   id="svg8"
   inkscape:version="1.0.2 (e86c870879, 2021-01-15, custom)"
   sodipodi:docname="pride_herat_demigirl.svg"
   inkscape:export-filename="/home/andromeda/genderqueer_big.png"
   inkscape:export-xdpi="96"
   inkscape:export-ydpi="96">
  <defs
     id="defs2">
    <style
       id="style1361">.cls-1{fill:#ee3124;}.cls-2{fill:#f57f29;}.cls-3{fill:#fff000;}.cls-4{fill:#58b947;}.cls-5{fill:#0054a6;}.cls-6{fill:#9f248f;}.cls-7{fill:#603917;}.cls-8{fill:#7cc0ea;}.cls-9{fill:#f498c0;}.cls-10{fill:#fff;}</style>
  </defs>
  <sodipodi:namedview
     id="base"
     pagecolor="#ffffff"
     bordercolor="#666666"
     borderopacity="1.0"
     inkscape:pageopacity="0.0"
     inkscape:pageshadow="2"
     inkscape:zoom="0.25000001"
     inkscape:cx="-958.30116"
     inkscape:cy="-383.33368"
     inkscape:document-units="mm"
     inkscape:current-layer="layer1"
     inkscape:document-rotation="0"
     showgrid="false"
     units="px"
     inkscape:snap-bbox="true"
     inkscape:bbox-nodes="true"
     inkscape:bbox-paths="true"
     inkscape:snap-bbox-midpoints="true"
     inkscape:snap-bbox-edge-midpoints="true"
     inkscape:window-width="1920"
     inkscape:window-height="1024"
     inkscape:window-x="0"
     inkscape:window-y="28"
     inkscape:window-maximized="1"
     inkscape:snap-midpoints="true"
     inkscape:object-paths="true"
     inkscape:snap-intersection-paths="true"
     inkscape:snap-smooth-nodes="true"
     inkscape:snap-object-midpoints="true"
     inkscape:snap-nodes="false" />
  <metadata
     id="metadata5">
    <rdf:RDF>
      <cc:Work
         rdf:about="">
        <dc:format>image/svg+xml</dc:format>
        <dc:type
           rdf:resource="http://purl.org/dc/dcmitype/StillImage" />
        <dc:title></dc:title>
      </cc:Work>
    </rdf:RDF>
  </metadata>
  <g
     inkscape:groupmode="layer"
     id="layer3"
     inkscape:label="Layer 3"
     style="display:none">
    <circle
       style="fill:#ffccaa;fill-opacity:1;stroke:none;stroke-width:1.28965"
       id="path1528"
       cx="24.464302"
       cy="100.97677"
       r="78.425537" />
  </g>
  <g
     inkscape:groupmode="layer"
     id="layer4"
     inkscape:label="Layer 4" />
  <g
     inkscape:label="Layer 1"
     inkscape:groupmode="layer"
     id="layer1"
     style="display:inline">
    <g
       id="g12273"
       transform="matrix(1.61816,0,0,1.61816,-298.89348,-347.62053)">
      <path
         id="rect833-3-0-61"
         style="display:inline;fill:#808080;fill-opacity:1;stroke:none;stroke-width:0.202536"
         d="m 192.41688,226.05194 a 24.159491,24.159491 0 0 0 0,34.16672 24.159491,24.159491 0 0 0 0.0719,0.0715 l -1.8e-4,1.8e-4 34.16672,34.16673 34.16671,-34.16672 -0.0574,-0.0574 a 24.159491,24.159491 0 0 0 0.0717,-0.0713 24.159491,24.159491 0 0 0 1e-5,-34.16671 24.159491,24.159491 0 0 0 -34.16672,0 24.159491,24.159491 0 0 0 -0.0711,0.0719 24.159491,24.159491 0 0 0 -0.0148,-0.0148 24.159491,24.159491 0 0 0 -34.16669,2e-5 z"
         inkscape:export-filename="/home/andromeda/rect833-5.png"
         inkscape:export-xdpi="96"
         inkscape:export-ydpi="96" />
      <path
         id="path1688-0-7-4-7-4-5"
         style="display:inline;fill:#e6e6e6;fill-opacity:1;stroke:none;stroke-width:0.887495"
         d="m 226.65509,227.23501 a 67.221853,67.221853 0 0 0 -41.25071,14.14539 24.159491,24.159491 0 0 0 7.01249,18.83812 24.159491,24.159491 0 0 0 0.0718,0.0718 l 34.16639,34.1669 34.1669,-34.16691 -0.0574,-0.0574 a 24.159491,24.159491 0 0 0 0.0718,-0.0713 24.159491,24.159491 0 0 0 7.01249,-18.82572 67.221853,67.221853 0 0 0 -41.19386,-14.10095 z" />
      <path
         id="path1688-1-3-4-4-4-8-5"
         style="display:inline;fill:#ffd5e5;fill-opacity:1;stroke:none;stroke-width:0.739579"
         d="m 226.62666,238.43896 a 56.018215,56.018215 0 0 0 -38.71856,15.53447 24.159491,24.159491 0 0 0 4.50877,6.24509 24.159491,24.159491 0 0 0 0.0718,0.0718 l 34.16639,34.1669 34.1669,-34.16691 -0.0574,-0.0574 a 24.159491,24.159491 0 0 0 0.0718,-0.0713 24.159491,24.159491 0 0 0 4.48914,-6.20684 56.018215,56.018215 0 0 0 -38.69894,-15.51585 z" />
      <path
         id="path1688-1-3-2-4-4-1-8-47"
         style="display:inline;fill:#ffffff;fill-opacity:1;stroke:none;stroke-width:0.591664"
         d="m 226.59411,249.64243 a 44.814566,44.814566 0 0 0 -31.64148,13.11185 l 31.70246,31.70297 31.67455,-31.67455 a 44.814566,44.814566 0 0 0 -31.70298,-13.14028 44.814566,44.814566 0 0 0 -0.0325,0 z" />
      <path
         id="path1688-1-3-0-3-4-8-8-6"
         style="display:inline;fill:#ffd5e5;fill-opacity:1;stroke:none;stroke-width:0.443746"
         d="m 226.65509,260.84588 a 33.610928,33.610928 0 0 0 -23.76651,9.84487 l 23.76651,23.76651 23.76651,-23.76651 a 33.610928,33.610928 0 0 0 -23.76651,-9.84487 z" />
      <path
         id="path1688-1-3-2-6-0-7-5-9-5"
         style="display:inline;fill:#e6e6e6;fill-opacity:1;stroke:none;stroke-width:0.295833"
         d="m 226.62666,272.04984 a 22.407285,22.407285 0 0 0 -15.83004,6.54844 l 15.85847,15.85898 15.83004,-15.83004 a 22.407285,22.407285 0 0 0 -15.85847,-6.57738 z" />
      <path
         id="path1688-1-3-0-1-7-6-9-7-6"
         style="display:inline;fill:#808080;fill-opacity:1;stroke:none;stroke-width:0.147915"
         d="m 226.62666,283.25329 a 11.203643,11.203643 0 0 0 -7.90804,3.26749 l 7.93647,7.93647 7.90804,-7.90805 a 11.203643,11.203643 0 0 0 -7.93647,-3.29591 z" />
    </g>
  </g>
  <g
     inkscape:groupmode="layer"
     id="layer2"
     inkscape:label="Layer 2" />
</svg>
