<?xml version="1.0" encoding="UTF-8" standalone="no"?>
<svg
   xmlns:dc="http://purl.org/dc/elements/1.1/"
   xmlns:cc="http://creativecommons.org/ns#"
   xmlns:rdf="http://www.w3.org/1999/02/22-rdf-syntax-ns#"
   xmlns:svg="http://www.w3.org/2000/svg"
   xmlns="http://www.w3.org/2000/svg"
   xmlns:sodipodi="http://sodipodi.sourceforge.net/DTD/sodipodi-0.dtd"
   xmlns:inkscape="http://www.inkscape.org/namespaces/inkscape"
   width="512"
   height="512"
   viewBox="0 0 135.46666 135.46667"
   version="1.1"
   id="svg8"
   inkscape:version="1.0.2 (e86c870879, 2021-01-15, custom)"
   sodipodi:docname="pride_herat_neutrois.svg"
   inkscape:export-filename="/home/andromeda/genderqueer_big.png"
   inkscape:export-xdpi="96"
   inkscape:export-ydpi="96">
  <defs
     id="defs2">
    <style
       id="style1361">.cls-1{fill:#ee3124;}.cls-2{fill:#f57f29;}.cls-3{fill:#fff000;}.cls-4{fill:#58b947;}.cls-5{fill:#0054a6;}.cls-6{fill:#9f248f;}.cls-7{fill:#603917;}.cls-8{fill:#7cc0ea;}.cls-9{fill:#f498c0;}.cls-10{fill:#fff;}</style>
  </defs>
  <sodipodi:namedview
     id="base"
     pagecolor="#ffffff"
     bordercolor="#666666"
     borderopacity="1.0"
     inkscape:pageopacity="0.0"
     inkscape:pageshadow="2"
     inkscape:zoom="0.1767767"
     inkscape:cx="1190.1855"
     inkscape:cy="273.02714"
     inkscape:document-units="mm"
     inkscape:current-layer="layer1"
     inkscape:document-rotation="0"
     showgrid="false"
     units="px"
     inkscape:snap-bbox="true"
     inkscape:bbox-nodes="true"
     inkscape:bbox-paths="true"
     inkscape:snap-bbox-midpoints="true"
     inkscape:snap-bbox-edge-midpoints="true"
     inkscape:window-width="1920"
     inkscape:window-height="1024"
     inkscape:window-x="0"
     inkscape:window-y="28"
     inkscape:window-maximized="1"
     inkscape:snap-midpoints="true"
     inkscape:object-paths="true"
     inkscape:snap-intersection-paths="true"
     inkscape:snap-smooth-nodes="true"
     inkscape:snap-object-midpoints="true"
     inkscape:snap-nodes="false" />
  <metadata
     id="metadata5">
    <rdf:RDF>
      <cc:Work
         rdf:about="">
        <dc:format>image/svg+xml</dc:format>
        <dc:type
           rdf:resource="http://purl.org/dc/dcmitype/StillImage" />
        <dc:title></dc:title>
      </cc:Work>
    </rdf:RDF>
  </metadata>
  <g
     inkscape:groupmode="layer"
     id="layer3"
     inkscape:label="Layer 3"
     style="display:none">
    <circle
       style="fill:#ffccaa;fill-opacity:1;stroke:none;stroke-width:1.28965"
       id="path1528"
       cx="24.464302"
       cy="100.97677"
       r="78.425537" />
  </g>
  <g
     inkscape:groupmode="layer"
     id="layer4"
     inkscape:label="Layer 4" />
  <g
     inkscape:label="Layer 1"
     inkscape:groupmode="layer"
     id="layer1"
     style="display:inline">
    <path
       id="rect833-3-6-2"
       style="display:inline;fill:#ffffff;fill-opacity:1;stroke:none;stroke-width:0.327736"
       d="m 12.432666,18.166687 a 39.093992,39.093992 0 0 0 0,55.287286 39.093992,39.093992 0 0 0 0.116346,0.115699 l -2.92e-4,2.91e-4 55.287319,55.287317 55.287301,-55.287301 -0.0929,-0.09288 a 39.093992,39.093992 0 0 0 0.11602,-0.115375 39.093992,39.093992 0 0 0 10e-6,-55.287287 39.093992,39.093992 0 0 0 -55.287311,0 39.093992,39.093992 0 0 0 -0.115052,0.116346 39.093992,39.093992 0 0 0 -0.02395,-0.02395 39.093992,39.093992 0 0 0 -55.287271,3.3e-5 z"
       inkscape:export-filename="/home/andromeda/rect833-5.png"
       inkscape:export-xdpi="96"
       inkscape:export-ydpi="96" />
    <path
       id="path1688-1-3-4-4-0-28-8"
       style="display:inline;fill:#ffffff;fill-opacity:1;stroke:none;stroke-width:1.39622"
       d="M 67.770261,23.102423 A 105.75442,105.75442 0 0 0 0.99647742,46.849919 39.093992,39.093992 0 0 0 12.432472,73.453908 a 39.093992,39.093992 0 0 0 0.116184,0.115375 v 8.58e-4 l 55.28761,55.286789 55.286784,-55.286789 -0.0929,-0.09288 A 39.093992,39.093992 0 0 0 123.14634,73.361886 39.093992,39.093992 0 0 0 134.57898,46.87832 105.75442,105.75442 0 0 0 67.770089,23.102378 Z" />
    <path
       id="path1688-1-3-2-4-4-3-47-9"
       style="display:inline;fill:#2ca05a;fill-opacity:1;stroke:none;stroke-width:1.11698"
       d="m 67.789485,44.253495 a 84.603527,84.603527 0 0 0 -59.4393957,24.398903 39.093992,39.093992 0 0 0 4.0823827,4.80151 39.093992,39.093992 0 0 0 0.116184,0.115375 v 8.58e-4 l 55.28761,55.286789 55.286784,-55.286789 -0.0929,-0.09288 a 39.093992,39.093992 0 0 0 0.11619,-0.115375 39.093992,39.093992 0 0 0 4.0439,-4.747997 A 84.603527,84.603527 0 0 0 67.789313,44.25345 Z" />
    <path
       id="path1688-1-3-0-3-4-0-24-7"
       style="display:inline;fill:#2ca05a;fill-opacity:1;stroke:none;stroke-width:0.837731"
       d="M 67.633121,65.404551 A 63.452646,63.452646 0 0 0 22.956987,83.978424 L 67.836314,128.85693 112.69223,84.001013 a 63.452646,63.452646 0 0 0 -44.879331,-18.596462 63.452646,63.452646 0 0 0 -0.179778,0 z" />
    <path
       id="path1688-1-3-2-6-0-7-9-0-3"
       style="display:inline;fill:#333333;fill-opacity:1;stroke:none;stroke-width:0.55849"
       d="M 67.789485,86.555623 A 42.301767,42.301767 0 0 0 37.900883,98.92232 L 67.836314,128.85693 97.72409,98.969149 A 42.301767,42.301767 0 0 0 67.789485,86.555623 Z" />
    <path
       id="path1688-1-3-0-1-7-6-2-6-6"
       style="display:inline;fill:#333333;fill-opacity:1;stroke:none;stroke-width:0.279243"
       d="m 67.715065,107.7067 a 21.150884,21.150884 0 0 0 -14.857761,6.17122 l 14.97901,14.97901 14.932181,-14.93219 a 21.150884,21.150884 0 0 0 -14.97901,-6.21804 21.150884,21.150884 0 0 0 -0.07444,0 z" />
  </g>
  <g
     inkscape:groupmode="layer"
     id="layer2"
     inkscape:label="Layer 2" />
</svg>
