<?xml version="1.0" encoding="UTF-8" standalone="no"?>
<svg
   xmlns:dc="http://purl.org/dc/elements/1.1/"
   xmlns:cc="http://creativecommons.org/ns#"
   xmlns:rdf="http://www.w3.org/1999/02/22-rdf-syntax-ns#"
   xmlns:svg="http://www.w3.org/2000/svg"
   xmlns="http://www.w3.org/2000/svg"
   xmlns:sodipodi="http://sodipodi.sourceforge.net/DTD/sodipodi-0.dtd"
   xmlns:inkscape="http://www.inkscape.org/namespaces/inkscape"
   width="512"
   height="512"
   viewBox="0 0 135.46666 135.46667"
   version="1.1"
   id="svg8"
   inkscape:version="1.0.2 (e86c870879, 2021-01-15, custom)"
   sodipodi:docname="pride_herat_non_binairy.svg"
   inkscape:export-filename="/home/andromeda/genderqueer_big.png"
   inkscape:export-xdpi="96"
   inkscape:export-ydpi="96">
  <defs
     id="defs2">
    <style
       id="style1361">.cls-1{fill:#ee3124;}.cls-2{fill:#f57f29;}.cls-3{fill:#fff000;}.cls-4{fill:#58b947;}.cls-5{fill:#0054a6;}.cls-6{fill:#9f248f;}.cls-7{fill:#603917;}.cls-8{fill:#7cc0ea;}.cls-9{fill:#f498c0;}.cls-10{fill:#fff;}</style>
  </defs>
  <sodipodi:namedview
     id="base"
     pagecolor="#ffffff"
     bordercolor="#666666"
     borderopacity="1.0"
     inkscape:pageopacity="0.0"
     inkscape:pageshadow="2"
     inkscape:zoom="0.5"
     inkscape:cx="78.970358"
     inkscape:cy="484.18909"
     inkscape:document-units="mm"
     inkscape:current-layer="layer1"
     inkscape:document-rotation="0"
     showgrid="false"
     units="px"
     inkscape:snap-bbox="true"
     inkscape:bbox-nodes="true"
     inkscape:bbox-paths="true"
     inkscape:snap-bbox-midpoints="true"
     inkscape:snap-bbox-edge-midpoints="true"
     inkscape:window-width="1920"
     inkscape:window-height="1024"
     inkscape:window-x="0"
     inkscape:window-y="28"
     inkscape:window-maximized="1"
     inkscape:snap-midpoints="true"
     inkscape:object-paths="true"
     inkscape:snap-intersection-paths="true"
     inkscape:snap-smooth-nodes="true"
     inkscape:snap-object-midpoints="true"
     inkscape:snap-nodes="false" />
  <metadata
     id="metadata5">
    <rdf:RDF>
      <cc:Work
         rdf:about="">
        <dc:format>image/svg+xml</dc:format>
        <dc:type
           rdf:resource="http://purl.org/dc/dcmitype/StillImage" />
        <dc:title></dc:title>
      </cc:Work>
    </rdf:RDF>
  </metadata>
  <g
     inkscape:groupmode="layer"
     id="layer3"
     inkscape:label="Layer 3"
     style="display:none">
    <circle
       style="fill:#ffccaa;fill-opacity:1;stroke:none;stroke-width:1.28965"
       id="path1528"
       cx="24.464302"
       cy="100.97677"
       r="78.425537" />
  </g>
  <g
     inkscape:groupmode="layer"
     id="layer4"
     inkscape:label="Layer 4" />
  <g
     inkscape:label="Layer 1"
     inkscape:groupmode="layer"
     id="layer1"
     style="display:inline">
    <path
       id="rect833-3-1-2"
       style="display:inline;fill:#ffdd55;fill-opacity:1;stroke:none;stroke-width:0.327678"
       d="m 12.40783,18.15639 a 39.087005,39.087005 0 0 0 1.6e-5,55.277421 39.087005,39.087005 0 0 0 0.116325,0.115678 l -2.91e-4,2.91e-4 55.277437,55.27742 55.277423,-55.277403 -0.0929,-0.09287 a 39.087005,39.087005 0 0 0 0.116,-0.115355 39.087005,39.087005 0 0 0 2e-5,-55.277421 39.087005,39.087005 0 0 0 -55.277453,0 39.087005,39.087005 0 0 0 -0.115031,0.116325 39.087005,39.087005 0 0 0 -0.02394,-0.02394 39.087005,39.087005 0 0 0 -55.27739,3.3e-5 z"
       inkscape:export-filename="/home/andromeda/rect833-5.png"
       inkscape:export-xdpi="96"
       inkscape:export-ydpi="96" />
    <path
       id="rect833-3-66-8-9-0-0"
       style="display:inline;fill:#ffdd55;fill-opacity:1;stroke:none;stroke-width:0.327678"
       d="m 1.4400536,39.862705 a 39.087005,39.087005 0 0 0 10.9912674,33.595763 39.087005,39.087005 0 0 0 0.116487,0.115354 l -5.98e-4,5.99e-4 55.277405,55.277409 55.277425,-55.277409 -0.0929,-0.09287 a 39.087005,39.087005 0 0 0 0.11649,-0.115355 39.087005,39.087005 0 0 0 10.99601,-33.568565 111.02229,111.02229 0 0 0 -66.012714,-21.967198 39.087005,39.087005 0 0 0 -0.260753,0.258326 39.087005,39.087005 0 0 0 -0.114707,0.115839 39.087005,39.087005 0 0 0 -0.02427,-0.02427 A 39.087005,39.087005 0 0 0 67.35383,17.831013 111.02229,111.02229 0 0 0 1.4398436,39.862635 Z"
       inkscape:export-filename="/home/andromeda/rect833-3.png"
       inkscape:export-xdpi="96"
       inkscape:export-ydpi="96" />
    <path
       id="rect833-3-92-7-9-3-2"
       style="display:inline;fill:#ffffff;fill-opacity:1;stroke:none;stroke-width:0.327678"
       d="m 3.2549843,58.948454 a 39.087005,39.087005 0 0 0 9.1763367,14.510014 39.087005,39.087005 0 0 0 0.116487,0.115354 l -5.98e-4,5.99e-4 55.277405,55.277409 55.277425,-55.277409 -0.0929,-0.09287 a 39.087005,39.087005 0 0 0 0.11649,-0.115355 39.087005,39.087005 0 0 0 9.17517,-14.504092 95.161961,95.161961 0 0 0 -129.0458781,0.08623 z"
       inkscape:export-filename="/home/andromeda/rect833-3.png"
       inkscape:export-xdpi="96"
       inkscape:export-ydpi="96" />
    <path
       id="rect833-3-8-1-0-4-3"
       style="display:inline;fill:#ffffff;fill-opacity:1;stroke:none;stroke-width:0.327678"
       d="m 11.759143,72.768558 a 39.087005,39.087005 0 0 0 0.672178,0.68991 39.087005,39.087005 0 0 0 0.116487,0.115354 l -5.98e-4,5.99e-4 55.277405,55.277409 55.277405,-55.277409 -0.0929,-0.09287 a 39.087005,39.087005 0 0 0 0.11649,-0.115355 39.087005,39.087005 0 0 0 0.67278,-0.690492 79.301633,79.301633 0 0 0 -112.039309,0.09287 z"
       inkscape:export-filename="/home/andromeda/rect833-3.png"
       inkscape:export-xdpi="96"
       inkscape:export-ydpi="96" />
    <path
       id="rect833-3-6-7-8-0-7"
       style="display:inline;fill:#c6afe9;fill-opacity:1;stroke:none;stroke-width:0.327678"
       d="M 22.965022,83.991586 67.824599,128.85116 112.68419,83.991586 a 63.441303,63.441303 0 0 0 -89.719168,0 z"
       inkscape:export-filename="/home/andromeda/rect833-3.png"
       inkscape:export-xdpi="96"
       inkscape:export-ydpi="96" />
    <path
       id="rect833-3-0-2-1-3-5"
       style="display:inline;fill:#c6afe9;fill-opacity:1;stroke:none;stroke-width:0.327678"
       d="M 34.179783,95.206929 67.824615,128.85175 101.46945,95.206913 a 47.580978,47.580978 0 0 0 -67.289667,1.6e-5 z"
       inkscape:export-filename="/home/andromeda/rect833-3.png"
       inkscape:export-xdpi="96"
       inkscape:export-ydpi="96" />
    <path
       id="rect833-3-2-7-3-9-9"
       style="display:inline;fill:#333333;fill-opacity:1;stroke:none;stroke-width:0.327678"
       d="m 45.394527,106.42166 22.430088,22.43009 22.430071,-22.43009 a 31.720653,31.720653 0 0 0 -44.860159,0 z"
       inkscape:export-filename="/home/andromeda/rect833-3.png"
       inkscape:export-xdpi="96"
       inkscape:export-ydpi="96" />
    <path
       id="rect833-3-9-2-1-1-2"
       style="display:inline;fill:#333333;fill-opacity:1;stroke:none;stroke-width:0.327678"
       d="m 56.609854,117.637 11.214761,11.21475 11.215327,-11.21535 a 15.860327,15.860327 0 0 0 -22.430088,6e-4 z"
       inkscape:export-filename="/home/andromeda/rect833-3.png"
       inkscape:export-xdpi="96"
       inkscape:export-ydpi="96" />
  </g>
  <g
     inkscape:groupmode="layer"
     id="layer2"
     inkscape:label="Layer 2" />
</svg>
