<?xml version="1.0" encoding="UTF-8" standalone="no"?>
<svg
   xmlns:dc="http://purl.org/dc/elements/1.1/"
   xmlns:cc="http://creativecommons.org/ns#"
   xmlns:rdf="http://www.w3.org/1999/02/22-rdf-syntax-ns#"
   xmlns:svg="http://www.w3.org/2000/svg"
   xmlns="http://www.w3.org/2000/svg"
   xmlns:sodipodi="http://sodipodi.sourceforge.net/DTD/sodipodi-0.dtd"
   xmlns:inkscape="http://www.inkscape.org/namespaces/inkscape"
   width="512"
   height="512"
   viewBox="0 0 135.46666 135.46667"
   version="1.1"
   id="svg8"
   inkscape:version="1.0.2 (e86c870879, 2021-01-15, custom)"
   sodipodi:docname="pride_heart_pan.svg"
   inkscape:export-filename="/home/andromeda/genderqueer_big.png"
   inkscape:export-xdpi="96"
   inkscape:export-ydpi="96">
  <defs
     id="defs2">
    <style
       id="style1361">.cls-1{fill:#ee3124;}.cls-2{fill:#f57f29;}.cls-3{fill:#fff000;}.cls-4{fill:#58b947;}.cls-5{fill:#0054a6;}.cls-6{fill:#9f248f;}.cls-7{fill:#603917;}.cls-8{fill:#7cc0ea;}.cls-9{fill:#f498c0;}.cls-10{fill:#fff;}</style>
    <style
       id="style1361-0">.cls-1{fill:#ee3124;}.cls-2{fill:#f57f29;}.cls-3{fill:#fff000;}.cls-4{fill:#58b947;}.cls-5{fill:#0054a6;}.cls-6{fill:#9f248f;}.cls-7{fill:#603917;}.cls-8{fill:#7cc0ea;}.cls-9{fill:#f498c0;}.cls-10{fill:#fff;}</style>
    <style
       id="style1361-7">.cls-1{fill:#ee3124;}.cls-2{fill:#f57f29;}.cls-3{fill:#fff000;}.cls-4{fill:#58b947;}.cls-5{fill:#0054a6;}.cls-6{fill:#9f248f;}.cls-7{fill:#603917;}.cls-8{fill:#7cc0ea;}.cls-9{fill:#f498c0;}.cls-10{fill:#fff;}</style>
    <style
       id="style1361-2">.cls-1{fill:#ee3124;}.cls-2{fill:#f57f29;}.cls-3{fill:#fff000;}.cls-4{fill:#58b947;}.cls-5{fill:#0054a6;}.cls-6{fill:#9f248f;}.cls-7{fill:#603917;}.cls-8{fill:#7cc0ea;}.cls-9{fill:#f498c0;}.cls-10{fill:#fff;}</style>
  </defs>
  <sodipodi:namedview
     id="base"
     pagecolor="#ffffff"
     bordercolor="#666666"
     borderopacity="1.0"
     inkscape:pageopacity="0.0"
     inkscape:pageshadow="2"
     inkscape:zoom="0.7071068"
     inkscape:cx="364.3621"
     inkscape:cy="95.031219"
     inkscape:document-units="mm"
     inkscape:current-layer="layer1"
     inkscape:document-rotation="0"
     showgrid="false"
     units="px"
     inkscape:snap-bbox="true"
     inkscape:bbox-nodes="true"
     inkscape:bbox-paths="true"
     inkscape:snap-bbox-midpoints="true"
     inkscape:snap-bbox-edge-midpoints="true"
     inkscape:window-width="1920"
     inkscape:window-height="1024"
     inkscape:window-x="0"
     inkscape:window-y="28"
     inkscape:window-maximized="1"
     inkscape:snap-midpoints="true"
     inkscape:object-paths="true"
     inkscape:snap-intersection-paths="true"
     inkscape:snap-smooth-nodes="true"
     inkscape:snap-object-midpoints="true"
     inkscape:snap-nodes="false" />
  <metadata
     id="metadata5">
    <rdf:RDF>
      <cc:Work
         rdf:about="">
        <dc:format>image/svg+xml</dc:format>
        <dc:type
           rdf:resource="http://purl.org/dc/dcmitype/StillImage" />
        <dc:title></dc:title>
      </cc:Work>
    </rdf:RDF>
  </metadata>
  <g
     inkscape:groupmode="layer"
     id="layer3"
     inkscape:label="Layer 3"
     style="display:none">
    <circle
       style="fill:#ffccaa;fill-opacity:1;stroke:none;stroke-width:1.28965"
       id="path1528"
       cx="24.464302"
       cy="100.97677"
       r="78.425537" />
  </g>
  <g
     inkscape:groupmode="layer"
     id="layer4"
     inkscape:label="Layer 4" />
  <g
     inkscape:label="Layer 1"
     inkscape:groupmode="layer"
     id="layer1"
     style="display:inline">
    <path
       id="rect833-3-7-1"
       style="display:inline;fill:#ff5599;fill-opacity:1;stroke:none;stroke-width:0.327685"
       d="m 12.476357,18.175356 a 39.087882,39.087882 0 0 0 0,55.278661 39.087882,39.087882 0 0 0 0.116327,0.115681 l -2.91e-4,2.91e-4 55.278694,55.278681 55.278663,-55.278665 -0.0929,-0.09287 a 39.087882,39.087882 0 0 0 0.11601,-0.115357 39.087882,39.087882 0 0 0 1e-5,-55.278662 39.087882,39.087882 0 0 0 -55.278677,0 39.087882,39.087882 0 0 0 -0.115033,0.116328 39.087882,39.087882 0 0 0 -0.02394,-0.02394 39.087882,39.087882 0 0 0 -55.278646,3.2e-5 z"
       inkscape:export-filename="/home/andromeda/rect833-5.png"
       inkscape:export-xdpi="96"
       inkscape:export-ydpi="96" />
    <path
       id="path1688-1-3-4-4-0-28-9-6-2"
       style="display:inline;fill:#ff5599;fill-opacity:1;stroke:none;stroke-width:1.396"
       d="M 67.770259,23.110693 A 105.73789,105.73789 0 0 0 1.0069117,46.854477 39.087882,39.087882 0 0 0 12.441118,73.454309 a 39.087882,39.087882 0 0 0 0.116166,0.115357 v 8.57e-4 l 55.27897,55.278147 55.278146,-55.278147 -0.0929,-0.09287 a 39.087882,39.087882 0 0 0 0.1162,-0.115355 39.087882,39.087882 0 0 0 11.43085,-26.479427 105.73789,105.73789 0 0 0 -66.798453,-23.772227 z" />
    <path
       id="path1688-1-3-2-4-4-3-47-9-1-9"
       style="display:inline;fill:#ffdd55;fill-opacity:1;stroke:none;stroke-width:1.1168"
       d="m 67.78948,44.258459 a 84.590305,84.590305 0 0 0 -59.4301058,24.39509 39.087882,39.087882 0 0 0 4.0817438,4.80076 39.087882,39.087882 0 0 0 0.116166,0.115357 v 8.57e-4 l 55.27897,55.278147 55.278146,-55.278147 -0.0929,-0.09287 a 39.087882,39.087882 0 0 0 0.11617,-0.115357 39.087882,39.087882 0 0 0 4.04327,-4.747255 84.590305,84.590305 0 0 0 -59.391652,-24.356632 z" />
    <path
       id="path1688-1-3-0-3-4-0-24-6-3-3"
       style="display:inline;fill:#ffdd55;fill-opacity:1;stroke:none;stroke-width:0.8376"
       d="M 67.633141,65.406209 A 63.442729,63.442729 0 0 0 22.963989,83.977179 L 67.836302,128.84867 112.6852,83.999765 a 63.442729,63.442729 0 0 0 -44.872309,-18.593556 63.442729,63.442729 0 0 0 -0.17975,0 z" />
    <path
       id="path1688-1-3-2-6-0-7-9-0-0-2-1"
       style="display:inline;fill:#5fbcd3;fill-opacity:1;stroke:none;stroke-width:0.558402"
       d="M 67.78948,86.553976 A 42.295156,42.295156 0 0 0 37.90555,98.91874 L 67.836302,128.84867 97.719407,98.965562 A 42.295156,42.295156 0 0 0 67.78948,86.553976 Z" />
    <path
       id="path1688-1-3-0-1-7-6-2-6-2-1-9"
       style="display:inline;fill:#5fbcd3;fill-opacity:1;stroke:none;stroke-width:0.279199"
       d="M 67.715072,107.70174 A 21.147579,21.147579 0 0 0 52.859633,113.872 l 14.976669,14.97667 14.929847,-14.92985 a 21.147579,21.147579 0 0 0 -14.976669,-6.21708 21.147579,21.147579 0 0 0 -0.07442,0 z" />
  </g>
  <g
     inkscape:groupmode="layer"
     id="layer2"
     inkscape:label="Layer 2" />
</svg>
