<?xml version="1.0" encoding="UTF-8" standalone="no"?>
<svg
   xmlns:dc="http://purl.org/dc/elements/1.1/"
   xmlns:cc="http://creativecommons.org/ns#"
   xmlns:rdf="http://www.w3.org/1999/02/22-rdf-syntax-ns#"
   xmlns:svg="http://www.w3.org/2000/svg"
   xmlns="http://www.w3.org/2000/svg"
   xmlns:sodipodi="http://sodipodi.sourceforge.net/DTD/sodipodi-0.dtd"
   xmlns:inkscape="http://www.inkscape.org/namespaces/inkscape"
   width="512"
   height="512"
   viewBox="0 0 135.46666 135.46667"
   version="1.1"
   id="svg8"
   inkscape:version="1.0.2 (e86c870879, 2021-01-15, custom)"
   sodipodi:docname="pride_herat.svg">
  <defs
     id="defs2">
    <style
       id="style1361">.cls-1{fill:#ee3124;}.cls-2{fill:#f57f29;}.cls-3{fill:#fff000;}.cls-4{fill:#58b947;}.cls-5{fill:#0054a6;}.cls-6{fill:#9f248f;}.cls-7{fill:#603917;}.cls-8{fill:#7cc0ea;}.cls-9{fill:#f498c0;}.cls-10{fill:#fff;}</style>
  </defs>
  <sodipodi:namedview
     id="base"
     pagecolor="#ffffff"
     bordercolor="#666666"
     borderopacity="1.0"
     inkscape:pageopacity="0.0"
     inkscape:pageshadow="2"
     inkscape:zoom="0.35355339"
     inkscape:cx="-618.50026"
     inkscape:cy="543.47264"
     inkscape:document-units="mm"
     inkscape:current-layer="layer1"
     inkscape:document-rotation="0"
     showgrid="false"
     units="px"
     inkscape:snap-bbox="true"
     inkscape:bbox-nodes="true"
     inkscape:bbox-paths="true"
     inkscape:snap-bbox-midpoints="true"
     inkscape:snap-bbox-edge-midpoints="true"
     inkscape:window-width="1920"
     inkscape:window-height="1024"
     inkscape:window-x="0"
     inkscape:window-y="28"
     inkscape:window-maximized="1"
     inkscape:snap-midpoints="true"
     inkscape:object-paths="true"
     inkscape:snap-intersection-paths="true"
     inkscape:snap-smooth-nodes="true"
     inkscape:snap-object-midpoints="true"
     inkscape:snap-nodes="false" />
  <metadata
     id="metadata5">
    <rdf:RDF>
      <cc:Work
         rdf:about="">
        <dc:format>image/svg+xml</dc:format>
        <dc:type
           rdf:resource="http://purl.org/dc/dcmitype/StillImage" />
        <dc:title></dc:title>
      </cc:Work>
    </rdf:RDF>
  </metadata>
  <g
     inkscape:groupmode="layer"
     id="layer3"
     inkscape:label="Layer 3"
     style="display:none">
    <circle
       style="fill:#ffccaa;fill-opacity:1;stroke:none;stroke-width:1.28965"
       id="path1528"
       cx="24.464302"
       cy="100.97677"
       r="78.425537" />
  </g>
  <g
     inkscape:groupmode="layer"
     id="layer4"
     inkscape:label="Layer 4">
    <path
       id="rect833-3-5"
       style="display:inline;fill:#ffd5d5;fill-opacity:1;stroke:none;stroke-width:0.202536"
       d="m -170.22966,-59.429193 a 24.159491,24.159491 0 0 0 -24.15952,24.159515 24.159491,24.159491 0 0 0 2.6e-4,0.101371 h -2.6e-4 l 1e-5,48.319039 h 48.31902 l -10e-6,-0.0812 a 24.159491,24.159491 0 0 0 0.10114,2.7e-4 24.159491,24.159491 0 0 0 24.15952,-24.159515 24.159491,24.159491 0 0 0 -24.15952,-24.159518 24.159491,24.159491 0 0 0 -0.10109,5.44e-4 24.159491,24.159491 0 0 0 2e-5,-0.02095 24.159491,24.159491 0 0 0 -24.15952,-24.159485 z" />
    <rect
       style="display:inline;fill:#ff8080;fill-opacity:1;stroke:none;stroke-width:0.264583"
       id="rect1518-5"
       width="48.420151"
       height="48.39996"
       x="-194.38918"
       y="-35.249229" />
    <path
       style="display:inline;fill:none;stroke:#000000;stroke-width:0.382679px;stroke-linecap:butt;stroke-linejoin:miter;stroke-opacity:1"
       d="m -194.44532,13.083372 0.11229,-78.272314"
       id="path1526-4" />
    <path
       style="display:inline;fill:none;stroke:#000000;stroke-width:0.382679px;stroke-linecap:butt;stroke-linejoin:miter;stroke-opacity:1"
       d="m -194.38917,13.150722 35.01614,-70.003069"
       id="path1550-7" />
    <rect
       style="fill:#ff9955;fill-opacity:1;stroke:none;stroke-width:0.219534"
       id="rect1552-65"
       width="5.12781"
       height="9.8031921"
       x="-199.51698"
       y="-65.266342" />
    <rect
       style="fill:#de8787;fill-opacity:1;stroke:none;stroke-width:0.219534"
       id="rect1552-6-6"
       width="5.12781"
       height="9.8031921"
       x="-199.51698"
       y="-55.463146" />
    <rect
       style="fill:#ff9955;fill-opacity:1;stroke:none;stroke-width:0.219534"
       id="rect1552-1-9"
       width="5.12781"
       height="9.8031921"
       x="-199.51698"
       y="-45.659958" />
    <rect
       style="fill:#de8787;fill-opacity:1;stroke:none;stroke-width:0.219534"
       id="rect1552-6-2-3"
       width="5.12781"
       height="9.8031921"
       x="-199.51698"
       y="-35.856766" />
    <rect
       style="fill:#ff9955;fill-opacity:1;stroke:none;stroke-width:0.219534"
       id="rect1552-9-7"
       width="5.12781"
       height="9.8031921"
       x="-199.51698"
       y="-26.053574" />
    <rect
       style="fill:#de8787;fill-opacity:1;stroke:none;stroke-width:0.219534"
       id="rect1552-6-3-4"
       width="5.12781"
       height="9.8031921"
       x="-199.51698"
       y="-16.250381" />
    <rect
       style="fill:#ff9955;fill-opacity:1;stroke:none;stroke-width:0.219534"
       id="rect1552-1-1-5"
       width="5.12781"
       height="9.8031921"
       x="-199.51698"
       y="-6.4471898" />
    <rect
       style="fill:#de8787;fill-opacity:1;stroke:none;stroke-width:0.219534"
       id="rect1552-6-2-9-2"
       width="5.12781"
       height="9.8031921"
       x="-199.51698"
       y="3.3560021" />
  </g>
  <g
     inkscape:label="Layer 1"
     inkscape:groupmode="layer"
     id="layer1"
     style="display:inline">
    <path
       id="rect833-8"
       style="fill:#64c7f3;stroke:#d45500;stroke-width:0.419163"
       d="m 52.488745,-262.52764 a 50,50 0 0 0 -50.0000504,50.00004 50,50 0 0 0 5.3e-4,0.20981 h -5.3e-4 v 100.0001 H 102.48879 v -0.16795 a 50,50 0 0 0 0.20928,5.3e-4 50,50 0 0 0 50.00005,-50.00005 50,50 0 0 0 -50.00005,-50.00005 50,50 0 0 0 -0.20928,0.001 50,50 0 0 0 0,-0.0434 50,50 0 0 0 -50.000045,-50.00005 z" />
    <g
       id="g1404"
       transform="matrix(0.26458333,0,0,0.26458333,-415.86377,-133.86934)">
      <rect
         class="cls-1"
         x="-44.5"
         y="0.02"
         width="468.17001"
         height="49.360001"
         id="rect1365" />
      <rect
         class="cls-2"
         x="-44.5"
         y="49.380001"
         width="468.17001"
         height="49.889999"
         id="rect1367" />
      <rect
         class="cls-3"
         x="-44.5"
         y="99.269997"
         width="468.17001"
         height="49.889999"
         id="rect1369" />
      <rect
         class="cls-4"
         x="-44.5"
         y="149.16"
         width="468.17001"
         height="49.889999"
         id="rect1371" />
      <rect
         class="cls-5"
         x="-44.5"
         y="199.05"
         width="468.17001"
         height="49.889999"
         id="rect1373" />
      <rect
         class="cls-6"
         x="-44.5"
         y="248.94"
         width="468.17001"
         height="48.759998"
         id="rect1375" />
      <polygon
         points="212.83,148.76 -123.67,-190.44 -462.99,148.88 -126.49,488.08 "
         id="polygon1377" />
      <polygon
         class="cls-7"
         points="-126.49,455.18 179.93,148.76 -123.75,-157.63 -432.88,148.8 "
         id="polygon1379" />
      <polygon
         class="cls-8"
         points="-126.49,422.29 147.04,148.76 -123.58,-124.55 -399.8,148.97 "
         id="polygon1381" />
      <polygon
         class="cls-9"
         points="-126.49,389.39 116.84,148.76 -123.92,-92 -364.55,148.63 "
         id="polygon1383" />
      <polygon
         class="cls-10"
         points="-126.49,356.49 83.94,148.76 -123.74,-58.93 -331.48,148.81 "
         id="polygon1385" />
    </g>
    <circle
       style="fill:#ffeeaa;fill-opacity:1;stroke:none;stroke-width:1.03541"
       id="path1688-5"
       cx="383.62769"
       cy="-111.04517"
       r="78.425537" />
    <circle
       style="fill:#ffccaa;fill-opacity:1;stroke:none;stroke-width:0.905984"
       id="path1688-1-4"
       cx="383.62769"
       cy="-111.04517"
       r="68.622345" />
    <circle
       style="fill:#ffeeaa;fill-opacity:1;stroke:none;stroke-width:0.776558"
       id="path1688-0-7"
       cx="383.62769"
       cy="-111.04517"
       r="58.819153" />
    <circle
       style="fill:#ffccaa;fill-opacity:1;stroke:none;stroke-width:0.647131"
       id="path1688-1-3-4"
       cx="383.62769"
       cy="-111.04517"
       r="49.015961" />
    <circle
       style="fill:#ffeeaa;fill-opacity:1;stroke:none;stroke-width:0.517705"
       id="path1688-1-3-2-4"
       cx="383.62769"
       cy="-111.04517"
       r="39.212765" />
    <circle
       style="fill:#ffccaa;fill-opacity:1;stroke:none;stroke-width:0.388279"
       id="path1688-1-3-0-3"
       cx="383.62769"
       cy="-111.04517"
       r="29.409576" />
    <circle
       style="fill:#ffeeaa;fill-opacity:1;stroke:none;stroke-width:0.258853"
       id="path1688-1-3-2-6-0"
       cx="383.62769"
       cy="-111.04517"
       r="19.606384" />
    <circle
       style="fill:#ffccaa;fill-opacity:1;stroke:none;stroke-width:0.129426"
       id="path1688-1-3-0-1-7"
       cx="383.62769"
       cy="-111.04517"
       r="9.8031921" />
    <rect
       style="fill:#ff9955;fill-opacity:1;stroke:none;stroke-width:0.219534"
       id="rect1552-4-8"
       width="5.12781"
       height="9.8031921"
       x="378.49988"
       y="-189.4707" />
    <rect
       style="fill:#de8787;fill-opacity:1;stroke:none;stroke-width:0.219534"
       id="rect1552-6-7-6"
       width="5.12781"
       height="9.8031921"
       x="378.49988"
       y="-179.66751" />
    <rect
       style="fill:#ff9955;fill-opacity:1;stroke:none;stroke-width:0.219534"
       id="rect1552-1-8-8"
       width="5.12781"
       height="9.8031921"
       x="378.49988"
       y="-169.86432" />
    <rect
       style="fill:#de8787;fill-opacity:1;stroke:none;stroke-width:0.219534"
       id="rect1552-6-2-4-8"
       width="5.12781"
       height="9.8031921"
       x="378.49988"
       y="-160.06113" />
    <rect
       style="fill:#ff9955;fill-opacity:1;stroke:none;stroke-width:0.219534"
       id="rect1552-9-5-4"
       width="5.12781"
       height="9.8031921"
       x="378.49988"
       y="-150.25793" />
    <rect
       style="fill:#de8787;fill-opacity:1;stroke:none;stroke-width:0.219534"
       id="rect1552-6-3-0-3"
       width="5.12781"
       height="9.8031921"
       x="378.49988"
       y="-140.45474" />
    <rect
       style="fill:#ff9955;fill-opacity:1;stroke:none;stroke-width:0.219534"
       id="rect1552-1-1-3-1"
       width="5.12781"
       height="9.8031921"
       x="378.49988"
       y="-130.65155" />
    <rect
       style="fill:#de8787;fill-opacity:1;stroke:none;stroke-width:0.219534"
       id="rect1552-6-2-9-6-4"
       width="5.12781"
       height="9.8031921"
       x="378.49988"
       y="-120.84837" />
    <path
       id="rect833-3"
       style="fill:#ff5599;fill-opacity:1;stroke:none;stroke-width:0.202536"
       d="m 21.790522,44.970623 a 24.159491,24.159491 0 0 0 1e-6,34.16671 24.159491,24.159491 0 0 0 0.07186,0.0715 l -1.8e-4,1.8e-4 34.166723,34.166717 34.166711,-34.166707 -0.0574,-0.0574 a 24.159491,24.159491 0 0 0 0.0717,-0.0713 24.159491,24.159491 0 0 0 1e-5,-34.16671 24.159491,24.159491 0 0 0 -34.166723,0 24.159491,24.159491 0 0 0 -0.0711,0.0719 24.159491,24.159491 0 0 0 -0.0148,-0.0148 24.159491,24.159491 0 0 0 -34.166693,2e-5 z"
       inkscape:export-filename="/home/andromeda/rect833-5.png"
       inkscape:export-xdpi="96"
       inkscape:export-ydpi="96" />
    <path
       id="rect833-3-04"
       style="display:inline;fill:#333333;fill-opacity:1;stroke:none;stroke-width:0.202536"
       d="m -187.79623,150.47931 a 24.159491,24.159491 0 0 0 0,34.16671 24.159491,24.159491 0 0 0 0.0719,0.0715 l -1.8e-4,1.8e-4 34.16672,34.16672 34.16672,-34.16671 -0.0574,-0.0574 a 24.159491,24.159491 0 0 0 0.0717,-0.0713 24.159491,24.159491 0 0 0 10e-6,-34.16671 24.159491,24.159491 0 0 0 -34.16673,0 24.159491,24.159491 0 0 0 -0.0711,0.0719 24.159491,24.159491 0 0 0 -0.0148,-0.0148 24.159491,24.159491 0 0 0 -34.16669,2e-5 z"
       inkscape:export-filename="/home/andromeda/rect833-3.png"
       inkscape:export-xdpi="96"
       inkscape:export-ydpi="96" />
    <path
       id="rect833-3-66-8"
       style="display:inline;fill:#784421;fill-opacity:1;stroke:none;stroke-width:0.202536"
       d="m -194.57534,163.89589 a 24.159491,24.159491 0 0 0 6.79365,20.76538 24.159491,24.159491 0 0 0 0.072,0.0713 l -3.7e-4,3.7e-4 34.1667,34.1667 34.16671,-34.1667 -0.0574,-0.0574 a 24.159491,24.159491 0 0 0 0.072,-0.0713 24.159491,24.159491 0 0 0 6.79658,-20.74857 68.622344,68.622344 0 0 0 -40.80214,-13.57782 24.159491,24.159491 0 0 0 -0.16117,0.15967 24.159491,24.159491 0 0 0 -0.0709,0.0716 24.159491,24.159491 0 0 0 -0.015,-0.015 24.159491,24.159491 0 0 0 -0.21965,-0.21591 68.622344,68.622344 0 0 0 -40.74112,13.61764 z"
       inkscape:export-filename="/home/andromeda/rect833-3.png"
       inkscape:export-xdpi="96"
       inkscape:export-ydpi="96" />
    <path
       id="rect833-3-92-7"
       style="display:inline;fill:#ff5555;fill-opacity:1;stroke:none;stroke-width:0.202536"
       d="m -193.45354,175.6927 a 24.159491,24.159491 0 0 0 5.67185,8.96857 24.159491,24.159491 0 0 0 0.072,0.0713 l -3.7e-4,3.7e-4 34.1667,34.1667 34.16671,-34.1667 -0.0574,-0.0574 a 24.159491,24.159491 0 0 0 0.072,-0.0713 24.159491,24.159491 0 0 0 5.67113,-8.96491 58.819153,58.819153 0 0 0 -79.76264,0.0533 z"
       inkscape:export-filename="/home/andromeda/rect833-3.png"
       inkscape:export-xdpi="96"
       inkscape:export-ydpi="96" />
    <path
       id="rect833-3-8-1"
       style="display:inline;fill:#ffb380;fill-opacity:1;stroke:none;stroke-width:0.202536"
       d="m -188.19716,184.23484 a 24.159491,24.159491 0 0 0 0.41547,0.42643 24.159491,24.159491 0 0 0 0.072,0.0713 l -3.7e-4,3.7e-4 34.1667,34.1667 34.1667,-34.1667 -0.0574,-0.0574 a 24.159491,24.159491 0 0 0 0.072,-0.0713 24.159491,24.159491 0 0 0 0.41584,-0.42679 49.01596,49.01596 0 0 0 -69.25096,0.0574 z"
       inkscape:export-filename="/home/andromeda/rect833-3.png"
       inkscape:export-xdpi="96"
       inkscape:export-ydpi="96" />
    <path
       id="rect833-3-6-7"
       style="display:inline;fill:#ffdd55;fill-opacity:1;stroke:none;stroke-width:0.202536"
       d="m -181.27086,191.17174 27.72749,27.72749 27.7275,-27.72749 a 39.212766,39.212766 0 0 0 -55.45499,0 z"
       inkscape:export-filename="/home/andromeda/rect833-3.png"
       inkscape:export-xdpi="96"
       inkscape:export-ydpi="96" />
    <path
       id="rect833-3-0-2"
       style="display:inline;fill:#8dd35f;fill-opacity:1;stroke:none;stroke-width:0.202536"
       d="m -174.33907,198.10389 20.79571,20.7957 20.79571,-20.79571 a 29.409575,29.409575 0 0 0 -41.59142,1e-5 z"
       inkscape:export-filename="/home/andromeda/rect833-3.png"
       inkscape:export-xdpi="96"
       inkscape:export-ydpi="96" />
    <path
       id="rect833-3-2-7"
       style="display:inline;fill:#87aade;fill-opacity:1;stroke:none;stroke-width:0.202536"
       d="m -167.40729,205.03566 13.86393,13.86393 13.86392,-13.86393 a 19.606384,19.606384 0 0 0 -27.72785,0 z"
       inkscape:export-filename="/home/andromeda/rect833-3.png"
       inkscape:export-xdpi="96"
       inkscape:export-ydpi="96" />
    <path
       id="rect833-3-9-2"
       style="display:inline;fill:#c6afe9;fill-opacity:1;stroke:none;stroke-width:0.202536"
       d="m -160.47515,211.96781 6.93179,6.93178 6.93214,-6.93215 a 9.8031922,9.8031922 0 0 0 -13.86393,3.7e-4 z"
       inkscape:export-filename="/home/andromeda/rect833-3.png"
       inkscape:export-xdpi="96"
       inkscape:export-ydpi="96" />
    <circle
       style="display:inline;fill:#ffccaa;fill-opacity:1;stroke:none;stroke-width:1.03541"
       id="path1688-1-4-6"
       cx="559.68457"
       cy="-102.79463"
       r="78.425522" />
    <circle
       style="display:inline;fill:#ffeeaa;fill-opacity:1;stroke:none;stroke-width:0.828328"
       id="path1688-0-7-1"
       cx="559.68457"
       cy="-102.79463"
       r="62.740417" />
    <circle
       style="display:inline;fill:#ffccaa;fill-opacity:1;stroke:none;stroke-width:0.621246"
       id="path1688-1-3-4-0"
       cx="559.68457"
       cy="-102.79463"
       r="47.055313" />
    <circle
       style="display:inline;fill:#ffeeaa;fill-opacity:1;stroke:none;stroke-width:0.414165"
       id="path1688-1-3-2-6-0-5"
       cx="559.68457"
       cy="-102.79463"
       r="31.370209" />
    <ellipse
       style="display:inline;fill:#ffccaa;fill-opacity:1;stroke:none;stroke-width:0.207082"
       id="path1688-1-3-0-1-7-9"
       cx="559.68457"
       cy="-102.79463"
       rx="15.685103"
       ry="15.685104" />
    <rect
       style="display:inline;fill:#ff9955;fill-opacity:1;stroke:none;stroke-width:0.277691"
       id="rect1552-4-8-4"
       width="5.12781"
       height="15.685102"
       x="554.55676"
       y="-181.22015" />
    <rect
       style="display:inline;fill:#de8787;fill-opacity:1;stroke:none;stroke-width:0.277691"
       id="rect1552-6-7-6-9"
       width="5.12781"
       height="15.685102"
       x="554.55676"
       y="-165.53505" />
    <rect
       style="display:inline;fill:#ff9955;fill-opacity:1;stroke:none;stroke-width:0.277691"
       id="rect1552-1-8-8-0"
       width="5.12781"
       height="15.685102"
       x="554.55676"
       y="-149.84995" />
    <rect
       style="display:inline;fill:#de8787;fill-opacity:1;stroke:none;stroke-width:0.277691"
       id="rect1552-6-2-4-8-9"
       width="5.12781"
       height="15.685102"
       x="554.55676"
       y="-134.16484" />
    <rect
       style="display:inline;fill:#ff9955;fill-opacity:1;stroke:none;stroke-width:0.277691"
       id="rect1552-9-5-4-1"
       width="5.12781"
       height="15.685102"
       x="554.55676"
       y="-118.47974" />
    <path
       id="rect833-3-8"
       style="display:inline;fill:#aaeeff;fill-opacity:1;stroke:none;stroke-width:0.202536"
       d="m -189.26835,247.43008 a 24.159491,24.159491 0 0 0 0,34.16671 24.159491,24.159491 0 0 0 0.0719,0.0715 l -1.8e-4,1.8e-4 34.16672,34.16672 34.16671,-34.16671 -0.0574,-0.0574 a 24.159491,24.159491 0 0 0 0.0717,-0.0713 24.159491,24.159491 0 0 0 1e-5,-34.16671 24.159491,24.159491 0 0 0 -34.16672,0 24.159491,24.159491 0 0 0 -0.0711,0.0719 24.159491,24.159491 0 0 0 -0.0148,-0.0148 24.159491,24.159491 0 0 0 -34.16669,2e-5 z"
       inkscape:export-filename="/home/andromeda/rect833-3.png"
       inkscape:export-xdpi="96"
       inkscape:export-ydpi="96" />
    <path
       id="path1688-0-7-1-5-1"
       style="display:inline;fill:#ffd5e5;fill-opacity:1;stroke:none;stroke-width:0.828328"
       d="m -155.07252,253.22371 a 62.740418,62.740418 0 0 0 -40.98251,15.23472 24.159491,24.159491 0 0 0 6.77271,13.26741 24.159491,24.159491 0 0 0 0.0713,0.0713 l 34.16691,34.16691 34.16691,-34.16691 -0.0574,-0.0574 a 24.159491,24.159491 0 0 0 0.0713,-0.0713 24.159491,24.159491 0 0 0 6.76496,-13.21676 62.740418,62.740418 0 0 0 -40.97424,-15.22801 z" />
    <path
       id="path1688-1-3-4-0-9-2"
       style="display:inline;fill:#ffffff;fill-opacity:1;stroke:none;stroke-width:0.621247"
       d="m -155.0782,268.90854 a 47.055312,47.055312 0 0 0 -33.2388,13.78262 l 33.2729,33.2729 33.27291,-33.2729 a 47.055312,47.055312 0 0 0 -33.27291,-13.78262 47.055312,47.055312 0 0 0 -0.0341,0 z" />
    <path
       id="path1688-1-3-2-6-0-5-7-9"
       style="display:inline;fill:#ffd5e5;fill-opacity:1;stroke:none;stroke-width:0.414166"
       d="m -155.17019,284.59388 a 31.370209,31.370209 0 0 0 -22.06997,9.1736 l 22.19606,22.19658 22.16764,-22.16764 a 31.370209,31.370209 0 0 0 -22.19606,-9.20254 31.370209,31.370209 0 0 0 -0.0977,0 z" />
    <path
       id="path1688-1-3-0-1-7-9-7-3"
       style="display:inline;fill:#aaeeff;fill-opacity:1;stroke:none;stroke-width:0.207082"
       d="m -155.0441,300.27923 a 15.685103,15.685104 0 0 0 -11.09079,4.59352 l 11.09079,11.09131 11.0908,-11.0908 a 15.685103,15.685104 0 0 0 -11.0908,-4.59403 z" />
    <path
       id="rect833-3-9"
       style="display:inline;fill:#ff5599;fill-opacity:1;stroke:none;stroke-width:0.202536"
       d="m -291.22085,161.20856 a 24.159491,24.159491 0 0 0 0,34.16671 24.159491,24.159491 0 0 0 0.0719,0.0715 l -1.8e-4,1.8e-4 34.16672,34.16671 34.16671,-34.1667 -0.0574,-0.0574 a 24.159491,24.159491 0 0 0 0.0717,-0.0713 24.159491,24.159491 0 0 0 1e-5,-34.16671 24.159491,24.159491 0 0 0 -34.16672,0 24.159491,24.159491 0 0 0 -0.0711,0.0719 24.159491,24.159491 0 0 0 -0.0148,-0.0148 24.159491,24.159491 0 0 0 -34.16669,2e-5 z"
       inkscape:export-filename="/home/andromeda/rect833-4.png"
       inkscape:export-xdpi="96"
       inkscape:export-ydpi="96" />
    <path
       id="path1688-0-7-1-5-0"
       style="display:inline;fill:#ff5599;fill-opacity:1;stroke:none;stroke-width:0.828328"
       d="m -257.02501,167.00218 a 62.740418,62.740418 0 0 0 -40.98251,15.23473 24.159491,24.159491 0 0 0 6.77271,13.26741 24.159491,24.159491 0 0 0 0.0713,0.0713 l 34.16691,34.16691 34.1669,-34.16691 -0.0574,-0.0574 a 24.159491,24.159491 0 0 0 0.0713,-0.0713 24.159491,24.159491 0 0 0 6.76497,-13.21677 62.740418,62.740418 0 0 0 -40.97425,-15.22801 z"
       inkscape:export-filename="/home/andromeda/rect833-4.png"
       inkscape:export-xdpi="96"
       inkscape:export-ydpi="96" />
    <path
       id="path1688-1-3-4-0-9-8"
       style="display:inline;fill:#cd87de;fill-opacity:1;stroke:none;stroke-width:0.621247"
       d="m -257.0307,182.68701 a 47.055312,47.055312 0 0 0 -33.23879,13.78262 l 33.2729,33.27291 33.2729,-33.27291 a 47.055312,47.055312 0 0 0 -33.2729,-13.78262 47.055312,47.055312 0 0 0 -0.0341,0 z"
       inkscape:export-filename="/home/andromeda/rect833-4.png"
       inkscape:export-xdpi="96"
       inkscape:export-ydpi="96" />
    <path
       id="path1688-1-3-2-6-0-5-7-8"
       style="display:inline;fill:#3771c8;fill-opacity:1;stroke:none;stroke-width:0.414166"
       d="m -257.12268,198.37236 a 31.370209,31.370209 0 0 0 -22.06997,9.1736 l 22.19606,22.19658 22.16763,-22.16764 a 31.370209,31.370209 0 0 0 -22.19605,-9.20254 31.370209,31.370209 0 0 0 -0.0977,0 z"
       inkscape:export-filename="/home/andromeda/rect833-4.png"
       inkscape:export-xdpi="96"
       inkscape:export-ydpi="96" />
    <path
       id="path1688-1-3-0-1-7-9-7-5"
       style="display:inline;fill:#3771c8;fill-opacity:1;stroke:none;stroke-width:0.207082"
       d="m -256.99659,214.05771 a 15.685103,15.685104 0 0 0 -11.0908,4.59351 l 11.0908,11.09132 11.09079,-11.0908 a 15.685103,15.685104 0 0 0 -11.09079,-4.59403 z"
       inkscape:export-filename="/home/andromeda/rect833-4.png"
       inkscape:export-xdpi="96"
       inkscape:export-ydpi="96" />
    <circle
       style="display:inline;fill:#ffeeaa;fill-opacity:1;stroke:none;stroke-width:1.03541"
       id="path1688-5-3"
       cx="747.63098"
       cy="-100.40665"
       r="78.425537" />
    <g
       id="g2837"
       transform="matrix(1.1428566,0,0,1.1428566,262.713,-201.98524)">
      <circle
         style="display:inline;fill:#ffccaa;fill-opacity:1;stroke:none;stroke-width:0.905984"
         id="path1688-1-4-0"
         cx="424.30347"
         cy="88.881317"
         r="68.622345" />
      <circle
         style="display:inline;fill:#ffeeaa;fill-opacity:1;stroke:none;stroke-width:0.776558"
         id="path1688-0-7-4"
         cx="424.30347"
         cy="88.881317"
         r="58.819153" />
      <circle
         style="display:inline;fill:#ffccaa;fill-opacity:1;stroke:none;stroke-width:0.647131"
         id="path1688-1-3-4-4"
         cx="424.30347"
         cy="88.881317"
         r="49.015961" />
      <circle
         style="display:inline;fill:#ffeeaa;fill-opacity:1;stroke:none;stroke-width:0.517705"
         id="path1688-1-3-2-4-4"
         cx="424.30347"
         cy="88.881317"
         r="39.212765" />
      <circle
         style="display:inline;fill:#ffccaa;fill-opacity:1;stroke:none;stroke-width:0.388279"
         id="path1688-1-3-0-3-4"
         cx="424.30347"
         cy="88.881317"
         r="29.409576" />
      <circle
         style="display:inline;fill:#ffeeaa;fill-opacity:1;stroke:none;stroke-width:0.258853"
         id="path1688-1-3-2-6-0-7"
         cx="424.30347"
         cy="88.881317"
         r="19.606384" />
      <circle
         style="display:inline;fill:#ffccaa;fill-opacity:1;stroke:none;stroke-width:0.129426"
         id="path1688-1-3-0-1-7-6"
         cx="424.30347"
         cy="88.881317"
         r="9.8031921" />
    </g>
    <rect
       style="display:inline;fill:#ff9955;fill-opacity:1;stroke:none;stroke-width:0.219534"
       id="rect1552-4-8-3"
       width="5.12781"
       height="9.8031921"
       x="742.50317"
       y="-178.83217" />
    <rect
       style="display:inline;fill:#de8787;fill-opacity:1;stroke:none;stroke-width:0.250896"
       id="rect1552-6-7-6-1"
       width="5.8603554"
       height="11.20365"
       x="742.1369"
       y="-178.83218" />
    <rect
       style="display:inline;fill:#ff9955;fill-opacity:1;stroke:none;stroke-width:0.250896"
       id="rect1552-1-8-8-7"
       width="5.8603554"
       height="11.20365"
       x="742.1369"
       y="-167.62852" />
    <rect
       style="display:inline;fill:#de8787;fill-opacity:1;stroke:none;stroke-width:0.250896"
       id="rect1552-6-2-4-8-5"
       width="5.8603554"
       height="11.20365"
       x="742.1369"
       y="-156.42488" />
    <rect
       style="display:inline;fill:#ff9955;fill-opacity:1;stroke:none;stroke-width:0.250896"
       id="rect1552-9-5-4-9"
       width="5.8603554"
       height="11.20365"
       x="742.1369"
       y="-145.22124" />
    <rect
       style="display:inline;fill:#de8787;fill-opacity:1;stroke:none;stroke-width:0.250896"
       id="rect1552-6-3-0-3-6"
       width="5.8603554"
       height="11.20365"
       x="742.1369"
       y="-134.01758" />
    <rect
       style="display:inline;fill:#ff9955;fill-opacity:1;stroke:none;stroke-width:0.250896"
       id="rect1552-1-1-3-1-2"
       width="5.8603554"
       height="11.20365"
       x="742.1369"
       y="-122.81393" />
    <rect
       style="display:inline;fill:#de8787;fill-opacity:1;stroke:none;stroke-width:0.250896"
       id="rect1552-6-2-9-6-4-1"
       width="5.8603554"
       height="11.20365"
       x="742.1369"
       y="-111.61031" />
    <path
       id="rect833-3-0"
       style="display:inline;fill:#808080;fill-opacity:1;stroke:none;stroke-width:0.202536"
       d="m -290.25488,248.14025 a 24.159491,24.159491 0 0 0 0,34.16671 24.159491,24.159491 0 0 0 0.0719,0.0715 l -1.8e-4,1.8e-4 34.16672,34.16673 34.16671,-34.16672 -0.0574,-0.0574 a 24.159491,24.159491 0 0 0 0.0717,-0.0713 24.159491,24.159491 0 0 0 1e-5,-34.16671 24.159491,24.159491 0 0 0 -34.16672,0 24.159491,24.159491 0 0 0 -0.0711,0.0719 24.159491,24.159491 0 0 0 -0.0148,-0.0148 24.159491,24.159491 0 0 0 -34.16669,2e-5 z"
       inkscape:export-filename="/home/andromeda/rect833-5.png"
       inkscape:export-xdpi="96"
       inkscape:export-ydpi="96" />
    <path
       id="path1688-0-7-4-7-4"
       style="display:inline;fill:#e6e6e6;fill-opacity:1;stroke:none;stroke-width:0.887495"
       d="m -256.01667,249.32331 a 67.221853,67.221853 0 0 0 -41.25071,14.14539 24.159491,24.159491 0 0 0 7.01249,18.83812 24.159491,24.159491 0 0 0 0.0718,0.0718 l 34.16639,34.16691 34.1669,-34.16691 -0.0574,-0.0574 a 24.159491,24.159491 0 0 0 0.0718,-0.0713 24.159491,24.159491 0 0 0 7.01249,-18.82572 67.221853,67.221853 0 0 0 -41.19386,-14.10095 z" />
    <path
       id="path1688-1-3-4-4-4-8"
       style="display:inline;fill:#ffd5e5;fill-opacity:1;stroke:none;stroke-width:0.739579"
       d="m -256.0451,260.52727 a 56.018215,56.018215 0 0 0 -38.71856,15.53446 24.159491,24.159491 0 0 0 4.50877,6.24509 24.159491,24.159491 0 0 0 0.0718,0.0718 l 34.16639,34.16691 34.1669,-34.16691 -0.0574,-0.0574 a 24.159491,24.159491 0 0 0 0.0718,-0.0713 24.159491,24.159491 0 0 0 4.48914,-6.20685 56.018215,56.018215 0 0 0 -38.69894,-15.51585 z" />
    <path
       id="path1688-1-3-2-4-4-1-8"
       style="display:inline;fill:#ffffff;fill-opacity:1;stroke:none;stroke-width:0.591664"
       d="m -256.07765,271.73073 a 44.814566,44.814566 0 0 0 -31.64148,13.11186 l 31.70246,31.70297 31.67455,-31.67455 a 44.814566,44.814566 0 0 0 -31.70298,-13.14028 44.814566,44.814566 0 0 0 -0.0325,0 z" />
    <path
       id="path1688-1-3-0-3-4-8-8"
       style="display:inline;fill:#ffd5e5;fill-opacity:1;stroke:none;stroke-width:0.443746"
       d="m -256.01667,282.93418 a 33.610928,33.610928 0 0 0 -23.76651,9.84487 l 23.76651,23.76651 23.76651,-23.76651 a 33.610928,33.610928 0 0 0 -23.76651,-9.84487 z" />
    <path
       id="path1688-1-3-2-6-0-7-5-9"
       style="display:inline;fill:#e6e6e6;fill-opacity:1;stroke:none;stroke-width:0.295833"
       d="m -256.0451,294.13814 a 22.407285,22.407285 0 0 0 -15.83004,6.54844 l 15.85847,15.85898 15.83004,-15.83004 a 22.407285,22.407285 0 0 0 -15.85847,-6.57738 z" />
    <path
       id="path1688-1-3-0-1-7-6-9-7"
       style="display:inline;fill:#808080;fill-opacity:1;stroke:none;stroke-width:0.147915"
       d="m -256.0451,305.34159 a 11.203643,11.203643 0 0 0 -7.90804,3.2675 l 7.93647,7.93647 7.90804,-7.90805 a 11.203643,11.203643 0 0 0 -7.93647,-3.29592 z" />
    <circle
       style="display:inline;fill:#ffeeaa;fill-opacity:1;stroke:none;stroke-width:1.03541"
       id="path1688-0-7-4-3"
       cx="284.3674"
       cy="96.0952"
       r="78.425537" />
    <rect
       style="display:inline;fill:#ff9955;fill-opacity:1;stroke:none;stroke-width:0.219534"
       id="rect1552-4-8-3-5"
       width="5.12781"
       height="9.8031921"
       x="279.23953"
       y="17.669674" />
    <rect
       style="display:inline;fill:#de8787;fill-opacity:1;stroke:none;stroke-width:0.250896"
       id="rect1552-6-7-6-1-4"
       width="5.8603554"
       height="11.20365"
       x="278.87326"
       y="17.669659" />
    <rect
       style="display:inline;fill:#ff9955;fill-opacity:1;stroke:none;stroke-width:0.270999"
       id="rect1552-1-8-8-7-0"
       width="5.8603554"
       height="13.070928"
       x="278.87326"
       y="17.669659" />
    <rect
       style="display:inline;fill:#de8787;fill-opacity:1;stroke:none;stroke-width:0.270999"
       id="rect1552-6-2-4-8-5-5"
       width="5.8603554"
       height="13.070928"
       x="278.87326"
       y="30.74058" />
    <rect
       style="display:inline;fill:#ff9955;fill-opacity:1;stroke:none;stroke-width:0.270999"
       id="rect1552-9-5-4-9-9"
       width="5.8603554"
       height="13.070928"
       x="278.87326"
       y="43.811501" />
    <rect
       style="display:inline;fill:#de8787;fill-opacity:1;stroke:none;stroke-width:0.270999"
       id="rect1552-6-3-0-3-6-4"
       width="5.8603554"
       height="13.070928"
       x="278.87326"
       y="56.882439" />
    <rect
       style="display:inline;fill:#ff9955;fill-opacity:1;stroke:none;stroke-width:0.270999"
       id="rect1552-1-1-3-1-2-6"
       width="5.8603554"
       height="13.070928"
       x="278.87326"
       y="69.953369" />
    <rect
       style="display:inline;fill:#de8787;fill-opacity:1;stroke:none;stroke-width:0.270999"
       id="rect1552-6-2-9-6-4-1-9"
       width="5.8603554"
       height="13.070928"
       x="278.87326"
       y="83.024254" />
    <circle
       style="display:inline;fill:#ffeeaa;fill-opacity:1;stroke:none;stroke-width:1.03541"
       id="path1688-0-7-4-3-2"
       cx="946.06671"
       cy="-95.028557"
       r="78.425537" />
    <circle
       style="display:inline;fill:#ffccaa;fill-opacity:1;stroke:none;stroke-width:0.862841"
       id="path1688-1-3-4-4-0-2"
       cx="946.06671"
       cy="-95.028557"
       r="65.354622" />
    <circle
       style="display:inline;fill:#ffeeaa;fill-opacity:1;stroke:none;stroke-width:0.690274"
       id="path1688-1-3-2-4-4-3-4"
       cx="946.06671"
       cy="-95.028557"
       r="52.283691" />
    <circle
       style="display:inline;fill:#ffccaa;fill-opacity:1;stroke:none;stroke-width:0.517705"
       id="path1688-1-3-0-3-4-0-7"
       cx="946.06671"
       cy="-95.028557"
       r="39.212769" />
    <circle
       style="display:inline;fill:#ffeeaa;fill-opacity:1;stroke:none;stroke-width:0.345138"
       id="path1688-1-3-2-6-0-7-9-7"
       cx="946.06671"
       cy="-95.028557"
       r="26.141848" />
    <circle
       style="display:inline;fill:#ffccaa;fill-opacity:1;stroke:none;stroke-width:0.172568"
       id="path1688-1-3-0-1-7-6-2-5"
       cx="946.06671"
       cy="-95.028557"
       r="13.070924" />
    <rect
       style="display:inline;fill:#ff9955;fill-opacity:1;stroke:none;stroke-width:0.219534"
       id="rect1552-4-8-3-5-4"
       width="5.12781"
       height="9.8031921"
       x="940.93884"
       y="-173.45409" />
    <rect
       style="display:inline;fill:#de8787;fill-opacity:1;stroke:none;stroke-width:0.250896"
       id="rect1552-6-7-6-1-4-8"
       width="5.8603554"
       height="11.20365"
       x="940.57257"
       y="-173.4541" />
    <rect
       style="display:inline;fill:#ff9955;fill-opacity:1;stroke:none;stroke-width:0.270999"
       id="rect1552-1-8-8-7-0-1"
       width="5.8603554"
       height="13.070928"
       x="940.57257"
       y="-173.4541" />
    <rect
       style="display:inline;fill:#de8787;fill-opacity:1;stroke:none;stroke-width:0.270999"
       id="rect1552-6-2-4-8-5-5-2"
       width="5.8603554"
       height="13.070928"
       x="940.57257"
       y="-160.38318" />
    <rect
       style="display:inline;fill:#ff9955;fill-opacity:1;stroke:none;stroke-width:0.270999"
       id="rect1552-9-5-4-9-9-8"
       width="5.8603554"
       height="13.070928"
       x="940.57257"
       y="-147.31226" />
    <rect
       style="display:inline;fill:#de8787;fill-opacity:1;stroke:none;stroke-width:0.270999"
       id="rect1552-6-3-0-3-6-4-9"
       width="5.8603554"
       height="13.070928"
       x="940.57257"
       y="-134.24132" />
    <rect
       style="display:inline;fill:#ff9955;fill-opacity:1;stroke:none;stroke-width:0.270999"
       id="rect1552-1-1-3-1-2-6-3"
       width="5.8603554"
       height="13.070928"
       x="940.57257"
       y="-121.17039" />
    <rect
       style="display:inline;fill:#de8787;fill-opacity:1;stroke:none;stroke-width:0.270999"
       id="rect1552-6-2-9-6-4-1-9-6"
       width="5.8603554"
       height="13.070928"
       x="940.57257"
       y="-108.09949" />
    <path
       id="rect833-3-50"
       style="display:inline;fill:#ffeeaa;fill-opacity:1;stroke:none;stroke-width:0.202536"
       d="m -87.093401,249.5219 a 24.159491,24.159491 0 0 0 10e-7,34.16671 24.159491,24.159491 0 0 0 0.07186,0.0715 l -1.8e-4,1.8e-4 34.166724,34.16672 34.16671,-34.16671 -0.0574,-0.0574 a 24.159491,24.159491 0 0 0 0.0717,-0.0713 24.159491,24.159491 0 0 0 10e-6,-34.16671 24.159491,24.159491 0 0 0 -34.166723,0 24.159491,24.159491 0 0 0 -0.0711,0.0719 24.159491,24.159491 0 0 0 -0.0148,-0.0148 24.159491,24.159491 0 0 0 -34.166693,2e-5 z"
       inkscape:export-filename="/home/andromeda/rect833-5.png"
       inkscape:export-xdpi="96"
       inkscape:export-ydpi="96" />
    <path
       id="path1688-1-3-4-4-0-6"
       style="display:inline;fill:#ffccaa;fill-opacity:1;stroke:none;stroke-width:0.862841"
       d="m -52.895608,252.57212 a 65.35462,65.35462 0 0 0 -41.265182,14.67559 24.159491,24.159491 0 0 0 7.067268,16.44085 24.159491,24.159491 0 0 0 0.07183,0.0713 v 5.3e-4 l 34.166905,34.16639 34.166389,-34.16639 -0.05736,-0.0574 a 24.159491,24.159491 0 0 0 0.07183,-0.0713 24.159491,24.159491 0 0 0 7.065203,-16.36644 65.35462,65.35462 0 0 0 -41.286884,-14.69316 z" />
    <path
       id="path1688-1-3-2-4-4-3-46"
       style="display:inline;fill:#ffeeaa;fill-opacity:1;stroke:none;stroke-width:0.690274"
       d="m -52.883723,265.64316 a 52.28369,52.28369 0 0 0 -36.732642,15.07815 24.159491,24.159491 0 0 0 2.522843,2.96725 24.159491,24.159491 0 0 0 0.07183,0.0713 v 5.3e-4 l 34.166905,34.16639 34.166389,-34.16639 -0.05736,-0.0574 a 24.159491,24.159491 0 0 0 0.07183,-0.0713 24.159491,24.159491 0 0 0 2.499072,-2.93418 52.28369,52.28369 0 0 0 -36.708868,-15.05438 z" />
    <path
       id="path1688-1-3-0-3-4-0-2"
       style="display:inline;fill:#ffccaa;fill-opacity:1;stroke:none;stroke-width:0.517705"
       d="m -52.980359,278.71419 a 39.212768,39.212768 0 0 0 -27.609168,11.47837 l 27.734741,27.73423 27.720272,-27.72028 a 39.212768,39.212768 0 0 0 -27.734742,-11.49232 39.212768,39.212768 0 0 0 -0.111103,0 z" />
    <path
       id="path1688-1-3-2-6-0-7-9-5"
       style="display:inline;fill:#ffeeaa;fill-opacity:1;stroke:none;stroke-width:0.345138"
       d="m -52.883723,291.78523 a 26.141847,26.141847 0 0 0 -18.470708,7.64243 l 18.499645,18.49913 18.470192,-18.47019 a 26.141847,26.141847 0 0 0 -18.499129,-7.67137 z" />
    <path
       id="path1688-1-3-0-1-7-6-2-8"
       style="display:inline;fill:#ffccaa;fill-opacity:1;stroke:none;stroke-width:0.172568"
       d="m -52.929716,304.85627 a 13.070924,13.070924 0 0 0 -9.181869,3.81372 l 9.256799,9.2568 9.22786,-9.22786 a 13.070924,13.070924 0 0 0 -9.256797,-3.84266 13.070924,13.070924 0 0 0 -0.04599,0 z" />
    <path
       id="rect833-3-6"
       style="display:inline;fill:#ffffff;fill-opacity:1;stroke:none;stroke-width:0.202536"
       d="m -293.81266,337.49956 a 24.159491,24.159491 0 0 0 0,34.1667 24.159491,24.159491 0 0 0 0.0719,0.0715 l -1.8e-4,1.8e-4 34.16672,34.16672 34.16671,-34.16671 -0.0574,-0.0574 a 24.159491,24.159491 0 0 0 0.0717,-0.0713 24.159491,24.159491 0 0 0 1e-5,-34.1667 24.159491,24.159491 0 0 0 -34.16672,0 24.159491,24.159491 0 0 0 -0.0711,0.0719 24.159491,24.159491 0 0 0 -0.0148,-0.0148 24.159491,24.159491 0 0 0 -34.16669,2e-5 z"
       inkscape:export-filename="/home/andromeda/rect833-5.png"
       inkscape:export-xdpi="96"
       inkscape:export-ydpi="96" />
    <path
       id="path1688-1-3-4-4-0-28"
       style="display:inline;fill:#ffffff;fill-opacity:1;stroke:none;stroke-width:0.862841"
       d="m -259.61487,340.54977 a 65.35462,65.35462 0 0 0 -41.26518,14.67559 24.159491,24.159491 0 0 0 7.06727,16.44086 24.159491,24.159491 0 0 0 0.0718,0.0713 v 5.3e-4 l 34.1669,34.16639 34.16639,-34.16639 -0.0574,-0.0574 a 24.159491,24.159491 0 0 0 0.0718,-0.0713 24.159491,24.159491 0 0 0 7.0652,-16.36644 65.35462,65.35462 0 0 0 -41.28688,-14.69317 z" />
    <path
       id="path1688-1-3-2-4-4-3-47"
       style="display:inline;fill:#8dd35f;fill-opacity:1;stroke:none;stroke-width:0.690274"
       d="m -259.60299,353.62081 a 52.28369,52.28369 0 0 0 -36.73264,15.07815 24.159491,24.159491 0 0 0 2.52285,2.96726 24.159491,24.159491 0 0 0 0.0718,0.0713 v 5.3e-4 l 34.1669,34.16639 34.16639,-34.16639 -0.0574,-0.0574 a 24.159491,24.159491 0 0 0 0.0718,-0.0713 24.159491,24.159491 0 0 0 2.49907,-2.93419 52.28369,52.28369 0 0 0 -36.70887,-15.05438 z" />
    <path
       id="path1688-1-3-0-3-4-0-24"
       style="display:inline;fill:#8dd35f;fill-opacity:1;stroke:none;stroke-width:0.517705"
       d="m -259.69962,366.69184 a 39.212768,39.212768 0 0 0 -27.60917,11.47837 l 27.73474,27.73423 27.72027,-27.72027 a 39.212768,39.212768 0 0 0 -27.73474,-11.49233 39.212768,39.212768 0 0 0 -0.1111,0 z" />
    <path
       id="path1688-1-3-2-6-0-7-9-0"
       style="display:inline;fill:#333333;fill-opacity:1;stroke:none;stroke-width:0.345138"
       d="m -259.60299,379.76288 a 26.141847,26.141847 0 0 0 -18.4707,7.64243 l 18.49964,18.49913 18.47019,-18.47019 a 26.141847,26.141847 0 0 0 -18.49913,-7.67137 z" />
    <path
       id="path1688-1-3-0-1-7-6-2-6"
       style="display:inline;fill:#333333;fill-opacity:1;stroke:none;stroke-width:0.172568"
       d="m -259.64898,392.83392 a 13.070924,13.070924 0 0 0 -9.18187,3.81372 l 9.2568,9.2568 9.22786,-9.22786 a 13.070924,13.070924 0 0 0 -9.2568,-3.84266 13.070924,13.070924 0 0 0 -0.046,0 z" />
    <path
       id="rect833-3-1"
       style="display:inline;fill:#333333;fill-opacity:1;stroke:none;stroke-width:0.202536"
       d="m -184.54695,338.13127 a 24.159491,24.159491 0 0 0 1e-5,34.16671 24.159491,24.159491 0 0 0 0.0719,0.0715 l -1.8e-4,1.8e-4 34.16672,34.16671 34.16671,-34.1667 -0.0574,-0.0574 a 24.159491,24.159491 0 0 0 0.0717,-0.0713 24.159491,24.159491 0 0 0 10e-6,-34.16671 24.159491,24.159491 0 0 0 -34.16673,0 24.159491,24.159491 0 0 0 -0.0711,0.0719 24.159491,24.159491 0 0 0 -0.0148,-0.0148 24.159491,24.159491 0 0 0 -34.16669,2e-5 z"
       inkscape:export-filename="/home/andromeda/rect833-5.png"
       inkscape:export-xdpi="96"
       inkscape:export-ydpi="96" />
    <path
       id="rect833-3-66-8-9-0"
       style="display:inline;fill:#333333;fill-opacity:1;stroke:none;stroke-width:0.202536"
       d="m -191.32608,351.54784 a 24.159491,24.159491 0 0 0 6.79365,20.76538 24.159491,24.159491 0 0 0 0.072,0.0713 l -3.7e-4,3.7e-4 34.1667,34.1667 34.16671,-34.1667 -0.0574,-0.0574 a 24.159491,24.159491 0 0 0 0.072,-0.0713 24.159491,24.159491 0 0 0 6.79658,-20.74857 68.622344,68.622344 0 0 0 -40.80214,-13.57782 24.159491,24.159491 0 0 0 -0.16117,0.15967 24.159491,24.159491 0 0 0 -0.0709,0.0716 24.159491,24.159491 0 0 0 -0.015,-0.015 24.159491,24.159491 0 0 0 -0.21965,-0.21591 68.622344,68.622344 0 0 0 -40.74112,13.61764 z"
       inkscape:export-filename="/home/andromeda/rect833-3.png"
       inkscape:export-xdpi="96"
       inkscape:export-ydpi="96" />
    <path
       id="rect833-3-92-7-9-3"
       style="display:inline;fill:#e6e6e6;fill-opacity:1;stroke:none;stroke-width:0.202536"
       d="m -190.20428,363.34465 a 24.159491,24.159491 0 0 0 5.67185,8.96857 24.159491,24.159491 0 0 0 0.072,0.0713 l -3.7e-4,3.7e-4 34.1667,34.1667 34.16671,-34.1667 -0.0574,-0.0574 a 24.159491,24.159491 0 0 0 0.072,-0.0713 24.159491,24.159491 0 0 0 5.67113,-8.96491 58.819153,58.819153 0 0 0 -79.76264,0.0533 z"
       inkscape:export-filename="/home/andromeda/rect833-3.png"
       inkscape:export-xdpi="96"
       inkscape:export-ydpi="96" />
    <path
       id="rect833-3-8-1-0-4"
       style="display:inline;fill:#e6e6e6;fill-opacity:1;stroke:none;stroke-width:0.202536"
       d="m -184.9479,371.88679 a 24.159491,24.159491 0 0 0 0.41547,0.42643 24.159491,24.159491 0 0 0 0.072,0.0713 l -3.7e-4,3.7e-4 34.1667,34.1667 34.1667,-34.1667 -0.0574,-0.0574 a 24.159491,24.159491 0 0 0 0.072,-0.0713 24.159491,24.159491 0 0 0 0.41584,-0.42679 49.01596,49.01596 0 0 0 -69.25096,0.0574 z"
       inkscape:export-filename="/home/andromeda/rect833-3.png"
       inkscape:export-xdpi="96"
       inkscape:export-ydpi="96" />
    <path
       id="rect833-3-6-7-8-0"
       style="display:inline;fill:#ffffff;fill-opacity:1;stroke:none;stroke-width:0.202536"
       d="m -178.0216,378.82369 27.72749,27.72749 27.7275,-27.72749 a 39.212766,39.212766 0 0 0 -55.45499,0 z"
       inkscape:export-filename="/home/andromeda/rect833-3.png"
       inkscape:export-xdpi="96"
       inkscape:export-ydpi="96" />
    <path
       id="rect833-3-0-2-1-3"
       style="display:inline;fill:#ffffff;fill-opacity:1;stroke:none;stroke-width:0.202536"
       d="m -171.08981,385.75584 20.79571,20.7957 20.79571,-20.79571 a 29.409575,29.409575 0 0 0 -41.59142,10e-6 z"
       inkscape:export-filename="/home/andromeda/rect833-3.png"
       inkscape:export-xdpi="96"
       inkscape:export-ydpi="96" />
    <path
       id="rect833-3-2-7-3-9"
       style="display:inline;fill:#cd87de;fill-opacity:1;stroke:none;stroke-width:0.202536"
       d="m -164.15803,392.68761 13.86393,13.86393 13.86392,-13.86393 a 19.606384,19.606384 0 0 0 -27.72785,0 z"
       inkscape:export-filename="/home/andromeda/rect833-3.png"
       inkscape:export-xdpi="96"
       inkscape:export-ydpi="96" />
    <path
       id="rect833-3-9-2-1-1"
       style="display:inline;fill:#cd87de;fill-opacity:1;stroke:none;stroke-width:0.202536"
       d="m -157.22589,399.61976 6.93179,6.93178 6.93214,-6.93215 a 9.8031922,9.8031922 0 0 0 -13.86393,3.7e-4 z"
       inkscape:export-filename="/home/andromeda/rect833-3.png"
       inkscape:export-xdpi="96"
       inkscape:export-ydpi="96" />
    <path
       id="path1688-0-7-1-5-1-6"
       style="display:inline;fill:#ffffff;fill-opacity:1;stroke:none;stroke-width:0.828328"
       d="m 55.986335,50.764254 a 62.740418,62.740418 0 0 0 -40.98251,15.23472 24.159491,24.159491 0 0 0 6.77271,13.26741 24.159491,24.159491 0 0 0 0.0713,0.0713 l 34.16691,34.166906 34.16691,-34.166906 -0.0574,-0.0574 a 24.159491,24.159491 0 0 0 0.0713,-0.0713 24.159491,24.159491 0 0 0 6.76496,-13.21676 62.740418,62.740418 0 0 0 -40.97424,-15.22801 z" />
    <path
       id="path1688-1-3-4-0-9-2-9"
       style="display:inline;fill:#cd87de;fill-opacity:1;stroke:none;stroke-width:0.621247"
       d="m 55.980655,66.449084 a 47.055312,47.055312 0 0 0 -33.2388,13.78262 l 33.2729,33.272896 33.27291,-33.272896 a 47.055312,47.055312 0 0 0 -33.27291,-13.78262 47.055312,47.055312 0 0 0 -0.0341,0 z" />
    <path
       id="path1688-1-3-2-6-0-5-7-9-3"
       style="display:inline;fill:#333333;fill-opacity:1;stroke:none;stroke-width:0.414166"
       d="m 55.888665,82.134424 a 31.370209,31.370209 0 0 0 -22.06997,9.1736 l 22.19606,22.196576 22.16764,-22.167636 a 31.370209,31.370209 0 0 0 -22.19606,-9.20254 31.370209,31.370209 0 0 0 -0.0977,0 z" />
    <path
       id="path1688-1-3-0-1-7-9-7-3-3"
       style="display:inline;fill:#3771c8;fill-opacity:1;stroke:none;stroke-width:0.207082"
       d="m 56.014755,97.819774 a 15.685103,15.685104 0 0 0 -11.09079,4.593516 l 11.09079,11.09131 11.0908,-11.0908 a 15.685103,15.685104 0 0 0 -11.0908,-4.594026 z" />
  </g>
  <g
     inkscape:groupmode="layer"
     id="layer2"
     inkscape:label="Layer 2" />
</svg>
