<?xml version="1.0" encoding="UTF-8" standalone="no"?>
<svg
   xmlns:dc="http://purl.org/dc/elements/1.1/"
   xmlns:cc="http://creativecommons.org/ns#"
   xmlns:rdf="http://www.w3.org/1999/02/22-rdf-syntax-ns#"
   xmlns:svg="http://www.w3.org/2000/svg"
   xmlns="http://www.w3.org/2000/svg"
   xmlns:sodipodi="http://sodipodi.sourceforge.net/DTD/sodipodi-0.dtd"
   xmlns:inkscape="http://www.inkscape.org/namespaces/inkscape"
   width="512"
   height="512"
   viewBox="0 0 135.46666 135.46667"
   version="1.1"
   id="svg8"
   inkscape:version="1.0.2 (e86c870879, 2021-01-15, custom)"
   sodipodi:docname="pride_herat_polysexual.svg"
   inkscape:export-filename="/home/andromeda/genderqueer_big.png"
   inkscape:export-xdpi="96"
   inkscape:export-ydpi="96">
  <defs
     id="defs2">
    <style
       id="style1361">.cls-1{fill:#ee3124;}.cls-2{fill:#f57f29;}.cls-3{fill:#fff000;}.cls-4{fill:#58b947;}.cls-5{fill:#0054a6;}.cls-6{fill:#9f248f;}.cls-7{fill:#603917;}.cls-8{fill:#7cc0ea;}.cls-9{fill:#f498c0;}.cls-10{fill:#fff;}</style>
  </defs>
  <sodipodi:namedview
     id="base"
     pagecolor="#ffffff"
     bordercolor="#666666"
     borderopacity="1.0"
     inkscape:pageopacity="0.0"
     inkscape:pageshadow="2"
     inkscape:zoom="0.08838835"
     inkscape:cx="2391.3892"
     inkscape:cy="483.47118"
     inkscape:document-units="mm"
     inkscape:current-layer="layer1"
     inkscape:document-rotation="0"
     showgrid="false"
     units="px"
     inkscape:snap-bbox="true"
     inkscape:bbox-nodes="true"
     inkscape:bbox-paths="true"
     inkscape:snap-bbox-midpoints="true"
     inkscape:snap-bbox-edge-midpoints="true"
     inkscape:window-width="1920"
     inkscape:window-height="1024"
     inkscape:window-x="0"
     inkscape:window-y="28"
     inkscape:window-maximized="1"
     inkscape:snap-midpoints="true"
     inkscape:object-paths="true"
     inkscape:snap-intersection-paths="true"
     inkscape:snap-smooth-nodes="true"
     inkscape:snap-object-midpoints="true"
     inkscape:snap-nodes="false" />
  <metadata
     id="metadata5">
    <rdf:RDF>
      <cc:Work
         rdf:about="">
        <dc:format>image/svg+xml</dc:format>
        <dc:type
           rdf:resource="http://purl.org/dc/dcmitype/StillImage" />
        <dc:title></dc:title>
      </cc:Work>
    </rdf:RDF>
  </metadata>
  <g
     inkscape:groupmode="layer"
     id="layer3"
     inkscape:label="Layer 3"
     style="display:none">
    <circle
       style="fill:#ffccaa;fill-opacity:1;stroke:none;stroke-width:1.28965"
       id="path1528"
       cx="24.464302"
       cy="100.97677"
       r="78.425537" />
  </g>
  <g
     inkscape:groupmode="layer"
     id="layer4"
     inkscape:label="Layer 4" />
  <g
     inkscape:label="Layer 1"
     inkscape:groupmode="layer"
     id="layer1"
     style="display:inline">
    <g
       id="g11055"
       transform="matrix(1.61791,0,0,1.61791,546.39871,-666.82999)">
      <path
         id="rect833-3-7-1"
         style="display:inline;fill:#ff5599;fill-opacity:1;stroke:none;stroke-width:0.202536"
         d="m -330.00745,423.38903 a 24.159491,24.159491 0 0 0 0,34.16671 24.159491,24.159491 0 0 0 0.0719,0.0715 l -1.8e-4,1.8e-4 34.16673,34.16672 34.16671,-34.16671 -0.0574,-0.0574 a 24.159491,24.159491 0 0 0 0.0717,-0.0713 24.159491,24.159491 0 0 0 10e-6,-34.16671 24.159491,24.159491 0 0 0 -34.16672,0 24.159491,24.159491 0 0 0 -0.0711,0.0719 24.159491,24.159491 0 0 0 -0.0148,-0.0148 24.159491,24.159491 0 0 0 -34.1667,2e-5 z"
         inkscape:export-filename="/home/andromeda/rect833-5.png"
         inkscape:export-xdpi="96"
         inkscape:export-ydpi="96" />
      <path
         id="path1688-1-3-4-4-0-28-9-6-2"
         style="display:inline;fill:#ff5599;fill-opacity:1;stroke:none;stroke-width:0.862841"
         d="m -295.83132,426.43947 a 65.35462,65.35462 0 0 0 -41.26518,14.67559 24.159491,24.159491 0 0 0 7.06727,16.44086 24.159491,24.159491 0 0 0 0.0718,0.0713 v 5.3e-4 l 34.1669,34.16639 34.16639,-34.16639 -0.0574,-0.0574 a 24.159491,24.159491 0 0 0 0.0718,-0.0713 24.159491,24.159491 0 0 0 7.0652,-16.36644 65.35462,65.35462 0 0 0 -41.28688,-14.69317 z" />
      <path
         id="path1688-1-3-2-4-4-3-47-9-1-9"
         style="display:inline;fill:#87de87;fill-opacity:1;stroke:none;stroke-width:0.690274"
         d="m -295.81944,439.51051 a 52.28369,52.28369 0 0 0 -36.73264,15.07815 24.159491,24.159491 0 0 0 2.52285,2.96726 24.159491,24.159491 0 0 0 0.0718,0.0713 v 5.3e-4 l 34.1669,34.16639 34.16639,-34.16639 -0.0574,-0.0574 a 24.159491,24.159491 0 0 0 0.0718,-0.0713 24.159491,24.159491 0 0 0 2.49907,-2.93419 52.28369,52.28369 0 0 0 -36.70887,-15.05438 z" />
      <path
         id="path1688-1-3-0-3-4-0-24-6-3-3"
         style="display:inline;fill:#87de87;fill-opacity:1;stroke:none;stroke-width:0.517705"
         d="m -295.91607,452.58154 a 39.212768,39.212768 0 0 0 -27.60917,11.47837 l 27.73474,27.73423 27.72027,-27.72027 a 39.212768,39.212768 0 0 0 -27.73474,-11.49233 39.212768,39.212768 0 0 0 -0.1111,0 z" />
      <path
         id="path1688-1-3-2-6-0-7-9-0-0-2-1"
         style="display:inline;fill:#3771c8;fill-opacity:1;stroke:none;stroke-width:0.345138"
         d="m -295.81944,465.65258 a 26.141847,26.141847 0 0 0 -18.4707,7.64243 l 18.49964,18.49913 18.47019,-18.47019 a 26.141847,26.141847 0 0 0 -18.49913,-7.67137 z" />
      <path
         id="path1688-1-3-0-1-7-6-2-6-2-1-9"
         style="display:inline;fill:#3771c8;fill-opacity:1;stroke:none;stroke-width:0.172568"
         d="m -295.86543,478.72362 a 13.070924,13.070924 0 0 0 -9.18187,3.81372 l 9.2568,9.2568 9.22786,-9.22786 a 13.070924,13.070924 0 0 0 -9.2568,-3.84266 13.070924,13.070924 0 0 0 -0.046,0 z" />
    </g>
  </g>
  <g
     inkscape:groupmode="layer"
     id="layer2"
     inkscape:label="Layer 2" />
</svg>
