<?xml version="1.0" encoding="UTF-8" standalone="no"?>
<svg
   xmlns:dc="http://purl.org/dc/elements/1.1/"
   xmlns:cc="http://creativecommons.org/ns#"
   xmlns:rdf="http://www.w3.org/1999/02/22-rdf-syntax-ns#"
   xmlns:svg="http://www.w3.org/2000/svg"
   xmlns="http://www.w3.org/2000/svg"
   xmlns:xlink="http://www.w3.org/1999/xlink"
   xmlns:sodipodi="http://sodipodi.sourceforge.net/DTD/sodipodi-0.dtd"
   xmlns:inkscape="http://www.inkscape.org/namespaces/inkscape"
   width="512"
   height="512"
   viewBox="0 0 135.46666 135.46667"
   version="1.1"
   id="svg8"
   inkscape:version="1.0.2 (e86c870879, 2021-01-15, custom)"
   sodipodi:docname="rainbow_ace.svg"
   inkscape:export-filename="/home/andromeda/rainbow_ace.png"
   inkscape:export-xdpi="96"
   inkscape:export-ydpi="96">
  <defs
     id="defs2" />
  <sodipodi:namedview
     id="base"
     pagecolor="#ffffff"
     bordercolor="#666666"
     borderopacity="1.0"
     inkscape:pageopacity="0.0"
     inkscape:pageshadow="2"
     inkscape:zoom="0.84797571"
     inkscape:cx="236.19899"
     inkscape:cy="284.27629"
     inkscape:document-units="mm"
     inkscape:current-layer="layer1"
     inkscape:document-rotation="0"
     showgrid="false"
     units="px"
     inkscape:snap-bbox="true"
     inkscape:bbox-nodes="true"
     inkscape:snap-page="true"
     inkscape:snap-smooth-nodes="true"
     inkscape:snap-object-midpoints="true"
     inkscape:window-width="1920"
     inkscape:window-height="1024"
     inkscape:window-x="0"
     inkscape:window-y="28"
     inkscape:window-maximized="1"
     inkscape:snap-bbox-edge-midpoints="true"
     inkscape:snap-midpoints="true" />
  <metadata
     id="metadata5">
    <rdf:RDF>
      <cc:Work
         rdf:about="">
        <dc:format>image/svg+xml</dc:format>
        <dc:type
           rdf:resource="http://purl.org/dc/dcmitype/StillImage" />
        <dc:title></dc:title>
      </cc:Work>
    </rdf:RDF>
  </metadata>
  <g
     inkscape:label="Layer 1"
     inkscape:groupmode="layer"
     id="layer1">
    <path
       id="path12-5"
       style="fill:#333333;fill-opacity:1;stroke-width:0.749398"
       d="m -1.948421,-163.84373 v 67.733334 a 67.73333,67.73333 0 0 1 67.73332,67.733334 H 133.51823 A 135.46665,135.46665 0 0 0 -1.948421,-163.84373 Z" />
    <path
       style="fill:#ff5555;stroke:#000000;stroke-width:0.264583px;stroke-linecap:butt;stroke-linejoin:miter;stroke-opacity:1"
       d="m 0,0 v 67.73333 67.73333"
       id="path24" />
    <path
       style="fill:#ff5555;stroke:#000000;stroke-width:0.264583px;stroke-linecap:butt;stroke-linejoin:miter;stroke-opacity:1"
       d="M 0,67.73333 V 0"
       id="path129" />
    <path
       id="path179-6-2"
       style="fill:#e6e6e6;fill-opacity:1;stroke-width:2.33313"
       d="M 0 64 L 0 128 A 384 384 0 0 1 384 512 L 448 512 A 447.99999 447.99999 0 0 0 0 64 z M 65.199219 264.44141 A 255.99999 255.99999 0 0 1 67.798828 265.14062 A 255.99999 255.99999 0 0 0 65.199219 264.44141 z "
       transform="scale(0.26458333)" />
    <path
       id="path179"
       style="fill:#ffffff;fill-opacity:1;stroke-width:1.99983"
       d="M 0 128 L 0 192 A 319.99999 319.99999 0 0 1 320 512 L 384 512 A 383.99999 383.99999 0 0 0 0 128 z M 65.199219 264.44141 A 255.99999 255.99999 0 0 1 67.798828 265.14062 A 255.99999 255.99999 0 0 0 65.199219 264.44141 z "
       transform="scale(0.26458333)" />
    <path
       id="path179-6"
       style="fill:#cd87de;fill-opacity:1;stroke-width:1.66652"
       d="M 0 192 L 0 256 A 255.99999 255.99999 0 0 1 256 512 L 320 512 A 319.99999 319.99999 0 0 0 0 192 z "
       transform="scale(0.26458333)" />
    <path
       id="path12-5-0"
       style="fill:#333333;fill-opacity:1;stroke-width:2.83237"
       d="M 0 0 L 0 64 A 447.99999 447.99999 0 0 1 448 512 L 512 512 A 511.99994 511.99994 0 0 0 0 0 z M 65.199219 264.44141 A 255.99999 255.99999 0 0 1 67.798828 265.14062 A 255.99999 255.99999 0 0 0 65.199219 264.44141 z M 191.67578 342.30469 A 255.99999 255.99999 0 0 1 193.44922 344.33008 A 255.99999 255.99999 0 0 0 191.67578 342.30469 z M 252.1875 467.98242 A 255.99999 255.99999 0 0 1 252.63672 470.63477 A 255.99999 255.99999 0 0 0 252.1875 467.98242 z "
       transform="scale(0.26458333)" />
    <image
       sodipodi:absref="/home/andromeda/Pictures/Pride_hearts/SVG/pride_heart_ace.svg"
       xlink:href="pride_heart_ace.svg"
       y="-41.257759"
       x="-164.14853"
       id="image321"
       height="135.46666"
       width="135.46666"
       inkscape:svg-dpi="96"
       preserveAspectRatio="none" />
  </g>
</svg>
